<svg width="144" height="144" viewBox="0 0 144 144" fill="none" xmlns="http://www.w3.org/2000/svg">
<g clip-path="url(#clip0_1_24)">
<path d="M144 0H0V144H144V0Z" fill="white"/>
<path d="M72 144C111.765 144 144 111.765 144 72C144 32.2355 111.765 0 72 0C32.2355 0 0 32.2355 0 72C0 111.765 32.2355 144 72 144Z" fill="#B5C8E4"/>
<path d="M122.927 82.9118L115.947 75.6466V67.2418C115.947 60.6888 114.023 54.3496 110.462 48.865L101.131 34.9044C99.8491 32.9812 97.7835 31.6279 95.5042 31.1293C93.2249 30.702 90.8744 31.2006 88.88 32.5539C86.1733 34.477 84.7488 37.8959 85.2474 41.1724L82.3983 38.2521C82.327 38.1096 82.1846 38.0384 82.1134 37.896L66.5857 22.5108C63.238 19.1631 57.7535 19.1631 54.3346 22.5108C53.4086 23.4367 52.6963 24.6476 52.1977 25.9297C50.9156 25.075 49.3486 24.5764 47.6392 24.5764C45.3599 24.5764 43.2943 25.4311 41.5848 27.0693C38.7357 29.9185 38.2371 34.4058 40.3739 37.7535C39.0206 38.1809 37.8097 38.8931 36.955 39.8191C33.9634 42.8107 33.6073 47.5829 36.1003 50.9306C34.8182 51.358 33.6785 52.0703 32.8238 52.925C31.1856 54.5632 30.3308 56.7001 30.3308 58.9793C30.3308 61.2586 31.2568 63.4667 32.8238 65.0337L33.5361 65.746C30.0459 69.9484 28.1228 75.3617 28.1228 80.8462V84.194L21.7123 90.5332C21.2137 90.9606 21 91.6016 21 92.2427C21 92.8837 21.2849 93.5248 21.7123 93.9521C22.2109 94.3795 22.7807 94.6644 23.4217 94.6644C23.9916 94.6644 24.6326 94.4507 25.1312 93.9521L32.254 86.9006C32.6813 86.4732 32.9663 85.761 32.9663 85.1911V80.8462C32.9663 75.7178 34.9606 70.9456 38.5932 67.313L49.9897 55.9878C50.702 55.2755 52.0553 55.2755 52.7676 55.9878C53.1237 56.3439 53.3374 56.8425 53.3374 57.3411C53.3374 57.6972 53.2661 58.1246 52.91 58.4808L50.2746 61.2586C49.776 61.686 49.5623 62.327 49.5623 62.9681C49.5623 63.6091 49.8472 64.2502 50.2746 64.6776C50.7732 65.1049 51.343 65.3898 51.984 65.3898C52.5539 65.3898 53.1949 65.1761 53.6935 64.6776L63.5942 54.7057C64.3064 53.9934 65.6598 53.9934 66.372 54.7057C67.0843 55.418 67.1555 56.5576 66.5145 57.2699L56.4714 67.4554C55.9728 67.8828 55.7591 68.5239 55.7591 69.1649C55.7591 69.806 56.044 70.447 56.4714 70.8744C56.97 71.3017 57.5398 71.5866 58.1809 71.5866C58.7507 71.5866 59.3917 71.373 59.8903 70.8744L72.925 57.9109C73.6373 57.1986 74.9906 57.1986 75.7029 57.9109C76.059 58.2671 76.2727 58.7657 76.2727 59.2643C76.2727 59.7629 76.059 60.2614 75.7029 60.6176L62.6682 73.5098C62.1696 73.9372 61.9559 74.5782 61.9559 75.2193C61.9559 75.8603 62.2408 76.5014 62.6682 76.9287C63.5942 77.8547 65.1612 77.8547 66.1584 76.9287L76.2727 66.8856C77.0562 66.2446 78.1246 66.3158 78.8369 67.0281C79.193 67.3842 79.4067 67.8828 79.4067 68.3814C79.4067 68.88 79.193 69.3786 78.8369 69.7347L64.5914 83.909C63.4517 85.0487 63.3805 86.8294 64.3064 88.0402C65.3036 89.3223 67.0131 89.6073 68.3664 88.8238L72.7113 86.2596C73.6373 85.6897 74.8481 85.9034 75.418 86.8294C75.7741 87.2567 75.8453 87.8266 75.7029 88.3964C75.5604 88.9662 75.2755 89.3936 74.7769 89.7497L64.805 96.4451C61.5998 98.5819 57.8959 99.7216 54.1209 99.7216H47.3542C46.7132 99.7216 46.0722 99.9353 45.6448 100.434L38.522 107.485C38.0234 107.913 37.8097 108.554 37.8097 109.195C37.8097 109.836 38.0947 110.477 38.522 110.904C39.0206 111.332 39.5904 111.617 40.2315 111.617C40.8013 111.617 41.4424 111.403 41.9409 110.904L48.3514 104.565H54.1209C58.8931 104.565 63.5229 103.141 67.5829 100.505L69.5773 99.223C73.9222 101.289 78.7657 102.357 83.6091 102.357H88.7375L95.7891 109.409C96.2877 109.836 96.8575 110.121 97.5698 110.121C98.1396 110.121 98.7806 109.907 99.3505 109.409C100.276 108.411 100.276 106.844 99.3505 105.847L91.5866 98.1546C91.1593 97.7272 90.447 97.4423 89.8772 97.4423H83.6804C80.5463 97.4423 77.4836 96.9437 74.6345 95.9465L77.6972 93.8809C79.193 92.8837 80.2614 91.3167 80.6888 89.3223C81.0449 87.3992 80.6176 85.5473 79.4779 84.1227C78.3383 82.4845 76.4864 81.4161 74.492 81.2024L82.327 73.3673C83.6091 72.0852 84.3214 70.3758 84.3214 68.5239C84.3214 66.6719 83.6091 64.9625 82.327 63.6804C81.7572 63.1105 81.1162 62.6832 80.4039 62.327C80.9025 61.4011 81.1162 60.3327 81.1162 59.2643C81.1162 57.4123 80.4039 55.7029 79.0506 54.4208C77.6972 53.1387 75.9878 52.3552 74.1359 52.3552C72.9962 52.3552 71.9278 52.5689 71.0018 53.0674C70.6457 52.3552 70.1471 51.7141 69.6485 51.1443C68.2952 49.8622 66.5857 49.0787 64.7338 49.0787C62.8819 49.0787 61.1724 49.791 59.8903 51.1443L57.2549 53.7797C56.97 53.2099 56.5426 52.6401 56.044 52.2127C54.6907 50.9306 52.9812 50.1471 51.2005 50.1471C49.3486 50.1471 47.6392 50.8594 46.2858 52.2127L45.2174 53.2811L40.0178 48.224C39.3055 47.5117 38.9494 46.5857 38.9494 45.5885C38.9494 44.5914 39.3055 43.6654 40.0178 42.9531C41.3711 41.5998 43.4367 41.5286 44.9325 42.6682L50.2034 47.939C50.7019 48.3664 51.2718 48.6513 51.9128 48.6513C52.4826 48.6513 53.1237 48.4376 53.6223 47.939C54.1209 47.5117 54.3346 46.8706 54.3346 46.2296C54.3346 45.5885 54.0496 44.9475 53.6223 44.5201L44.5051 35.4742C43.7929 34.7619 43.4367 33.836 43.4367 32.8388C43.4367 31.8416 43.7929 30.9156 44.5051 30.2034C45.9297 28.7788 48.3514 28.7788 49.776 30.2034L65.6598 46.0871C66.1584 46.5145 66.7282 46.7994 67.3692 46.7994C67.939 46.7994 68.5801 46.5857 69.0787 46.0871C69.5773 45.6598 69.791 45.0187 69.791 44.3777C69.791 43.7366 69.5061 43.0956 69.0787 42.6682L57.0412 30.702C55.8303 29.2774 55.9728 27.0694 57.3261 25.7873C58.7507 24.3627 61.1724 24.3627 62.597 25.7873L76.3439 39.3917C76.4151 39.5342 76.4864 39.6054 76.6288 39.7479L88.4526 51.7141C89.6635 52.925 91.5154 53.0674 92.94 51.999C94.2933 50.9306 94.5782 49.0787 93.7947 47.5829L90.1621 41.5998C89.1649 39.8903 89.5923 37.611 91.2305 36.4714C92.014 35.9016 93.0824 35.6167 94.1508 35.8303C95.2193 36.044 96.074 36.6139 96.5726 37.4686L105.903 51.4292C108.966 55.9878 110.604 61.4011 110.604 67.0281V76.5726C110.604 77.2136 110.818 77.8547 111.317 78.3533L118.938 86.402C119.437 86.9006 120.006 87.1143 120.648 87.1143C121.217 87.1143 121.858 86.9006 122.357 86.402C123.853 85.4048 123.853 83.8378 122.927 82.9118ZM35.2455 59.0506C35.2455 58.0534 35.6017 57.1274 36.314 56.4152C37.0262 55.7029 38.0234 55.3467 38.9494 55.3467C39.7329 55.3467 40.5876 55.6316 41.2999 56.1302L42.2259 57.0562L36.955 62.2558L36.314 61.6148C35.6017 60.9025 35.2455 59.9765 35.2455 59.0506Z" fill="#3A5D92"/>
<path d="M95.2905 65.0338C96.1452 64.0366 96.1452 62.4696 95.2905 61.4724C94.4358 60.4752 92.8687 60.4752 92.014 61.4724L91.1593 62.3984C87.3842 66.6008 87.3842 73.3674 91.1593 77.5698C91.5866 78.0684 92.1565 78.2821 92.7975 78.2821C93.3673 78.2821 93.9372 78.0684 94.4358 77.5698C95.2905 76.5727 95.2905 75.0056 94.4358 74.0085C92.4414 71.8004 92.4414 68.1678 94.4358 65.8885L95.2905 65.0338Z" fill="#3A5D92"/>
</g>
<defs>
<clipPath id="clip0_1_24">
<rect width="144" height="144" fill="white"/>
</clipPath>
</defs>
</svg>
