<?xml version="1.0" standalone="no"?>
<!DOCTYPE svg PUBLIC "-//W3C//DTD SVG 1.1//EN" "http://www.w3.org/Graphics/SVG/1.1/DTD/svg11.dtd" >
<svg xmlns="http://www.w3.org/2000/svg">
<metadata>Generated by IcoMoon</metadata>
<defs>
<font id="icomoon" horiz-adv-x="1024">
<font-face units-per-em="1024" ascent="960" descent="-64" />
<missing-glyph horiz-adv-x="1024" />
<glyph unicode="&#x20;" horiz-adv-x="512" d="" />
<glyph unicode="&#xe900;" glyph-name="addCircle" d="M512 683.96c19.577 0 35.447-15.87 35.447-35.447v-165.067h165.067c19.577 0 35.447-15.87 35.447-35.447s-15.87-35.447-35.447-35.447h-165.067v-165.067c0-19.577-15.87-35.447-35.447-35.447s-35.447 15.87-35.447 35.447v165.067h-165.067c-19.577 0-35.447 15.87-35.447 35.447s15.87 35.447 35.447 35.447h165.067v165.067c0 19.577 15.87 35.447 35.447 35.447zM186.165 122.165c-179.954 179.954-179.954 471.716 0 651.67s471.716 179.954 651.67 0c179.954-179.954 179.954-471.716 0-651.67s-471.716-179.954-651.67 0zM236.294 723.706c-152.269-152.269-152.269-399.143 0-551.412s399.143-152.269 551.412 0c152.269 152.269 152.269 399.143 0 551.412s-399.143 152.269-551.412 0z" />
<glyph unicode="&#xe901;" glyph-name="caution" d="M462.647 844.325c14.993 8.695 32.020 13.275 49.353 13.275s34.359-4.579 49.353-13.275c14.969-8.68 27.384-21.155 35.992-36.165l0.043-0.076 362.177-625.577c8.657-14.993 13.22-31.998 13.236-49.31 0.014-17.312-4.52-34.324-13.148-49.332-8.63-15.008-21.051-27.486-36.022-36.182s-31.961-13.304-49.275-13.365h-724.71c-17.312 0.061-34.304 4.669-49.274 13.365s-27.392 21.174-36.022 36.182c-8.63 15.008-13.164 32.020-13.149 49.332s4.58 34.316 13.236 49.31l362.22 625.653c8.608 15.010 21.023 27.484 35.992 36.165zM455.195 791.728l28.498-16.5-362.219-625.653c-2.881-4.995-4.407-10.67-4.412-16.435-0.005-5.771 1.506-11.442 4.383-16.445s7.017-9.161 12.007-12.061c4.977-2.89 10.625-4.426 16.38-4.454h724.337c5.755 0.029 11.403 1.565 16.38 4.454 4.989 2.9 9.13 7.057 12.007 12.061 2.875 5.003 4.387 10.674 4.383 16.445-0.006 5.763-1.522 11.424-4.401 16.417l-362.314 625.814c-2.845 4.973-6.955 9.105-11.911 11.98s-10.582 4.388-16.312 4.388c-5.73 0-11.356-1.514-16.312-4.388-4.958-2.874-9.066-7.007-11.911-11.979l-28.582 16.357zM512.006 561.222c18.188 0 32.932-14.744 32.932-32.93v-164.655c0-18.186-14.744-32.93-32.932-32.93-18.186 0-32.93 14.744-32.93 32.93v164.655c0 18.186 14.744 32.93 32.93 32.93zM561.402 215.448c0-27.279-22.114-49.396-49.396-49.396s-49.396 22.116-49.396 49.396c0 27.281 22.114 49.398 49.396 49.398s49.396-22.116 49.396-49.398z" />
<glyph unicode="&#xe902;" glyph-name="caution-fill" d="M947.2 207.641l-349.8 607.479c-8.741 14.883-21.219 27.223-36.198 35.798-14.981 8.574-31.941 13.085-49.201 13.085s-34.22-4.511-49.199-13.085c-14.981-8.574-27.46-20.915-36.2-35.798l-349.8-607.479c-8.411-14.395-12.843-30.769-12.843-47.44 0-16.673 4.432-33.047 12.843-47.44 8.629-14.973 21.087-27.382 36.094-35.951s32.025-12.99 49.306-12.81h699.6c17.267-0.166 34.267 4.264 49.261 12.831 14.991 8.569 27.437 20.967 36.059 35.93 8.423 14.387 12.87 30.757 12.884 47.428 0.014 16.673-4.405 33.049-12.804 47.452zM480 544c0 8.487 3.371 16.626 9.374 22.626 6.001 6.003 14.139 9.374 22.626 9.374s16.628-3.371 22.628-9.374c6.001-6.001 9.372-14.139 9.372-22.626v-160c0-8.487-3.371-16.626-9.372-22.628-6.001-6.001-14.141-9.372-22.628-9.372s-16.626 3.371-22.626 9.372c-6.003 6.003-9.374 14.141-9.374 22.628v160zM512 192c-9.492 0-18.774 2.816-26.667 8.090s-14.045 12.771-17.678 21.541c-3.633 8.772-4.583 18.422-2.732 27.734 1.851 9.31 6.425 17.863 13.136 24.576 6.713 6.713 15.266 11.284 24.578 13.138 9.31 1.851 18.962 0.901 27.732-2.732 8.772-3.633 16.267-9.785 21.543-17.678 5.274-7.895 8.090-17.175 8.090-26.669 0-12.73-5.059-24.938-14.060-33.939-9.001-9.003-21.211-14.060-33.942-14.060z" />
<glyph unicode="&#xe903;" glyph-name="checkCircle" d="M721.367 529.885c14.158 13.832 14.422 36.524 0.588 50.682-13.832 14.158-36.524 14.422-50.682 0.588l-216.068-211.106-76.939 74.813c-14.191 13.797-36.882 13.48-50.682-0.711-13.797-14.191-13.48-36.882 0.711-50.68l101.986-99.168c13.935-13.55 36.129-13.523 50.031 0.061l241.056 235.52zM512 908.795c-254.493 0-460.8-206.307-460.8-460.799 0-254.495 206.307-460.8 460.8-460.8s460.8 206.305 460.8 460.8c0 254.493-206.307 460.799-460.8 460.799zM122.092 447.996c0 215.339 174.567 389.907 389.908 389.907s389.908-174.568 389.908-389.907c0-215.341-174.567-389.908-389.908-389.908s-389.908 174.567-389.908 389.908z" />
<glyph unicode="&#xe904;" glyph-name="checkCircle-fill" d="M512 864c-82.276 0-162.705-24.398-231.117-70.109s-121.731-110.681-153.217-186.694c-31.486-76.016-39.724-159.658-23.673-240.355 16.051-80.695 55.672-154.821 113.85-212.998 58.18-58.18 132.303-97.798 212.998-113.85 80.697-16.052 164.34-7.813 240.355 23.673s140.984 84.806 186.694 153.217c45.711 68.411 70.109 148.84 70.109 231.117-0.117 110.295-43.983 216.037-121.973 294.027s-183.732 121.856-294.027 121.973zM694.641 521.359l-224-224c-2.972-2.974-6.502-5.335-10.385-6.945-3.885-1.612-8.051-2.439-12.255-2.439s-8.37 0.827-12.253 2.439c-3.885 1.61-7.414 3.971-10.387 6.945l-96 96c-6.003 6.005-9.378 14.15-9.378 22.641s3.375 16.636 9.378 22.641c6.005 6.005 14.15 9.378 22.641 9.378s16.636-3.373 22.641-9.378l73.359-73.4 201.359 201.4c2.974 2.972 6.504 5.331 10.387 6.941 3.885 1.608 8.049 2.437 12.253 2.437s8.368-0.829 12.253-2.437c3.885-1.61 7.414-3.969 10.387-6.941 2.974-2.974 5.331-6.502 6.941-10.387 1.608-3.885 2.437-8.049 2.437-12.253s-0.829-8.368-2.437-12.253c-1.61-3.885-3.967-7.414-6.941-10.387z" />
<glyph unicode="&#xe905;" glyph-name="chile" d="M143.36 765.44c-16.966 0-30.72-13.754-30.72-30.72v-235.52h286.72v266.24h-256zM471.040 499.2h440.32v235.52c0 16.966-13.754 30.72-30.72 30.72h-409.6v-266.24zM112.64 427.52v-245.76c0-16.966 13.754-30.72 30.72-30.72h737.28c16.966 0 30.72 13.754 30.72 30.72v245.76h-798.72zM40.96 734.72c0 56.554 45.846 102.4 102.4 102.4h737.28c56.553 0 102.4-45.846 102.4-102.4v-552.96c0-56.553-45.847-102.4-102.4-102.4h-737.28c-56.554 0-102.4 45.847-102.4 102.4v552.96zM261.843 696.257l13.47-41.452c0.821-2.531 3.181-4.246 5.843-4.246h43.583c5.954 0 8.428-7.617 3.613-11.114l-35.26-25.618c-2.154-1.565-3.056-4.338-2.232-6.869l13.468-41.454c1.839-5.661-4.639-10.367-9.454-6.869l-35.262 25.618c-2.152 1.565-5.069 1.565-7.221 0l-35.262-25.618c-4.815-3.498-11.293 1.208-9.454 6.869l13.468 41.454c0.823 2.531-0.078 5.304-2.232 6.869l-35.26 25.618c-4.815 3.498-2.341 11.114 3.611 11.114h43.585c2.662 0 5.022 1.714 5.843 4.246l13.47 41.452c1.839 5.661 9.847 5.661 11.686 0z" />
<glyph unicode="&#xe906;" glyph-name="circleArrowBottom" d="M901.908 448c0 215.341-174.567 389.908-389.908 389.908s-389.908-174.567-389.908-389.908c0-215.341 174.567-389.908 389.908-389.908s389.908 174.567 389.908 389.908zM512 908.8c254.493 0 460.8-206.307 460.8-460.8s-206.307-460.8-460.8-460.8c-254.493 0-460.8 206.307-460.8 460.8s206.307 460.8 460.8 460.8zM687.254 446.032c13.842-13.842 13.842-36.286 0-50.129l-150.202-150.202c-13.842-13.842-36.286-13.842-50.129 0l-150.202 150.202c-13.842 13.842-13.842 36.286 0 50.129s36.286 13.842 50.129 0l125.139-125.139 125.139 125.139c13.842 13.842 36.284 13.842 50.127 0zM511.996 660.679c19.575 0 35.445-15.87 35.445-35.447v-354.462c0-19.575-15.87-35.445-35.445-35.445-19.577 0-35.447 15.87-35.447 35.445v354.462c0 19.577 15.87 35.447 35.447 35.447z" />
<glyph unicode="&#xe907;" glyph-name="circleArrowLeft" d="M512 58.092c215.341 0 389.908 174.567 389.908 389.908s-174.567 389.908-389.908 389.908c-215.341 0-389.908-174.567-389.908-389.908s174.567-389.908 389.908-389.908zM972.8 448c0-254.493-206.307-460.8-460.8-460.8s-460.8 206.307-460.8 460.8c0 254.493 206.307 460.8 460.8 460.8s460.8-206.307 460.8-460.8zM510.032 272.746c-13.842-13.842-36.284-13.842-50.129 0l-150.202 150.202c-13.842 13.842-13.842 36.286 0 50.129l150.202 150.202c13.844 13.842 36.286 13.842 50.129 0s13.842-36.286 0-50.129l-125.139-125.139 125.139-125.139c13.842-13.842 13.842-36.284 0-50.127zM724.679 448.004c0-19.577-15.87-35.447-35.445-35.447h-354.462c-19.577 0-35.447 15.87-35.447 35.447s15.87 35.447 35.447 35.447h354.462c19.575 0 35.445-15.87 35.445-35.447z" />
<glyph unicode="&#xe908;" glyph-name="circleArrowRight" d="M512 837.908c-215.339 0-389.908-174.567-389.908-389.908 0-215.339 174.567-389.908 389.908-389.908 215.339 0 389.908 174.567 389.908 389.908 0 215.339-174.567 389.908-389.908 389.908zM51.2 448c0 254.493 206.307 460.8 460.8 460.8s460.8-206.307 460.8-460.8c0-254.493-206.307-460.8-460.8-460.8s-460.8 206.307-460.8 460.8zM513.968 623.254c13.842 13.842 36.284 13.842 50.129 0l150.202-150.202c13.842-13.842 13.842-36.286 0-50.129l-150.202-150.202c-13.844-13.842-36.286-13.842-50.129 0s-13.842 36.286 0 50.129l125.139 125.139-125.139 125.139c-13.842 13.842-13.842 36.284 0 50.127zM299.321 447.996c0 19.577 15.87 35.447 35.445 35.447h354.462c19.577 0 35.447-15.87 35.447-35.447s-15.87-35.447-35.447-35.447h-354.462c-19.575 0-35.445 15.87-35.445 35.447z" />
<glyph unicode="&#xe909;" glyph-name="circleArrowTop" d="M122.092 448c0-215.341 174.567-389.908 389.908-389.908s389.908 174.567 389.908 389.908c0 215.341-174.567 389.908-389.908 389.908s-389.908-174.567-389.908-389.908zM512-12.8c-254.493 0-460.8 206.307-460.8 460.8s206.307 460.8 460.8 460.8c254.493 0 460.8-206.307 460.8-460.8s-206.307-460.8-460.8-460.8zM336.746 449.968c-13.842 13.842-13.842 36.286 0 50.129l150.202 150.202c13.842 13.842 36.286 13.842 50.129 0l150.202-150.202c13.842-13.842 13.842-36.286 0-50.129s-36.286-13.842-50.129 0l-125.139 125.139-125.139-125.139c-13.842-13.842-36.284-13.842-50.127 0zM512.004 235.321c-19.577 0-35.447 15.87-35.447 35.447v354.462c0 19.575 15.87 35.445 35.447 35.445s35.445-15.87 35.445-35.445v-354.462c0-19.577-15.868-35.447-35.445-35.447z" />
<glyph unicode="&#xe90a;" glyph-name="circleCaretBottom" d="M901.908 448c0 215.341-174.567 389.908-389.908 389.908s-389.908-174.567-389.908-389.908c0-215.341 174.567-389.908 389.908-389.908s389.908 174.567 389.908 389.908zM512 908.8c254.493 0 460.8-206.307 460.8-460.8s-206.307-460.8-460.8-460.8c-254.493 0-460.8 206.307-460.8 460.8s206.307 460.8 460.8 460.8zM695.216 527.518c14.551-13.095 15.731-35.506 2.636-50.057l-159.508-177.232c-6.722-7.469-16.298-11.733-26.348-11.733-10.047 0-19.624 4.264-26.345 11.733l-159.508 177.232c-13.097 14.551-11.917 36.962 2.634 50.057 14.551 13.097 36.964 11.917 50.059-2.634l133.161-147.956 133.161 147.956c13.097 14.551 35.508 15.731 50.059 2.634z" />
<glyph unicode="&#xe90b;" glyph-name="circleCaretLeft" d="M512 58.092c215.341 0 389.908 174.567 389.908 389.908s-174.567 389.908-389.908 389.908c-215.341 0-389.908-174.567-389.908-389.908s174.567-389.908 389.908-389.908zM972.8 448c0-254.493-206.307-460.8-460.8-460.8s-460.8 206.307-460.8 460.8c0 254.493 206.307 460.8 460.8 460.8s460.8-206.307 460.8-460.8zM591.52 264.784c-13.097-14.551-35.508-15.731-50.059-2.634l-177.232 159.506c-7.469 6.724-11.733 16.3-11.733 26.348s4.264 19.624 11.733 26.348l177.232 159.506c14.551 13.097 36.962 11.917 50.059-2.634 13.095-14.551 11.915-36.964-2.636-50.059l-147.956-133.161 147.956-133.161c14.551-13.095 15.731-35.508 2.636-50.059z" />
<glyph unicode="&#xe90c;" glyph-name="circleCaretRight" d="M512 837.908c-215.341 0-389.908-174.567-389.908-389.908s174.567-389.908 389.908-389.908c215.341 0 389.908 174.567 389.908 389.908s-174.567 389.908-389.908 389.908zM51.2 448c0 254.493 206.307 460.8 460.8 460.8s460.8-206.307 460.8-460.8c0-254.493-206.307-460.8-460.8-460.8s-460.8 206.307-460.8 460.8zM432.482 631.216c13.095 14.551 35.506 15.731 50.057 2.636l177.232-159.508c7.469-6.722 11.733-16.298 11.733-26.348 0-10.047-4.264-19.624-11.733-26.345l-177.232-159.508c-14.551-13.097-36.962-11.917-50.057 2.634-13.097 14.551-11.917 36.964 2.634 50.059l147.956 133.161-147.956 133.161c-14.551 13.097-15.731 35.508-2.634 50.059z" />
<glyph unicode="&#xe90d;" glyph-name="circleCaretTop" d="M122.092 448c0-215.341 174.567-389.908 389.908-389.908s389.908 174.567 389.908 389.908c0 215.341-174.567 389.908-389.908 389.908s-389.908-174.567-389.908-389.908zM512-12.8c-254.493 0-460.8 206.307-460.8 460.8s206.307 460.8 460.8 460.8c254.493 0 460.8-206.307 460.8-460.8s-206.307-460.8-460.8-460.8zM328.784 368.482c-14.551 13.095-15.731 35.506-2.636 50.057l159.508 177.232c6.722 7.469 16.298 11.733 26.348 11.733 10.047 0 19.624-4.264 26.345-11.733l159.508-177.232c13.097-14.551 11.917-36.962-2.634-50.057-14.551-13.097-36.964-11.917-50.059 2.634l-133.161 147.956-133.161-147.956c-13.097-14.551-35.508-15.731-50.059-2.634z" />
<glyph unicode="&#xe90e;" glyph-name="error" d="M512 837.908c-215.341 0-389.908-174.567-389.908-389.908s174.567-389.908 389.908-389.908c215.341 0 389.908 174.567 389.908 389.908s-174.567 389.908-389.908 389.908zM51.2 448c0 254.493 206.307 460.8 460.8 460.8s460.8-206.307 460.8-460.8c0-254.493-206.307-460.8-460.8-460.8s-460.8 206.307-460.8 460.8zM678.849 614.849c13.842-13.842 13.842-36.284 0-50.129l-283.568-283.568c-13.844-13.842-36.286-13.842-50.129 0s-13.842 36.286 0 50.129l283.568 283.568c13.842 13.842 36.286 13.842 50.129 0zM345.151 614.849c13.842 13.842 36.284 13.842 50.129 0l283.568-283.568c13.842-13.842 13.842-36.286 0-50.129s-36.286-13.842-50.129 0l-283.568 283.568c-13.842 13.844-13.842 36.286 0 50.129z" />
<glyph unicode="&#xe90f;" glyph-name="house" d="M960 128h-64v369.801c0.002 8.858-1.835 17.619-5.396 25.729-3.559 8.112-8.763 15.395-15.284 21.389l-320 301.921c-0.156 0.136-0.303 0.283-0.438 0.44-11.782 10.715-27.136 16.652-43.061 16.652s-31.279-5.937-43.059-16.652l-0.44-0.44-319.64-301.921c-6.52-5.994-11.725-13.277-15.284-21.389-3.56-8.11-5.397-16.871-5.396-25.729v-369.801h-64c-8.487 0-16.626-3.371-22.627-9.372s-9.373-14.141-9.373-22.628c0-8.487 3.371-16.626 9.373-22.626 6.001-6.003 14.14-9.374 22.627-9.374h896c8.487 0 16.626 3.371 22.628 9.374 6.001 6.001 9.372 14.139 9.372 22.626s-3.371 16.628-9.372 22.628c-6.003 6.001-14.141 9.372-22.628 9.372zM192 497.801l0.44 0.399 319.56 301.8 320.041-302.12v-369.881h-192.041v192c0 16.974-6.742 33.253-18.745 45.255-12.001 12.003-28.281 18.745-45.255 18.745h-128c-16.974 0-33.253-6.742-45.255-18.745-12.003-12.001-18.745-28.281-18.745-45.255v-192h-192v369.801zM576 128h-128v192h128v-192z" />
<glyph unicode="&#xe910;" glyph-name="house-fill" d="M960 128h-64v369.801c0.002 8.858-1.835 17.619-5.396 25.729-3.559 8.11-8.763 15.395-15.284 21.389l-320 301.921c-0.156 0.136-0.303 0.283-0.438 0.44-11.782 10.715-27.136 16.652-43.061 16.652s-31.279-5.937-43.059-16.652l-0.44-0.44-319.64-301.921c-6.52-5.994-11.725-13.279-15.284-21.389s-5.397-16.871-5.396-25.729v-369.801h-64c-8.487 0-16.626-3.371-22.627-9.372s-9.373-14.141-9.373-22.628c0-8.487 3.371-16.626 9.373-22.626 6.001-6.003 14.14-9.374 22.627-9.374h896c8.487 0 16.626 3.371 22.628 9.374 6.001 6.001 9.372 14.139 9.372 22.626s-3.371 16.628-9.372 22.628c-6.003 6.001-14.141 9.372-22.628 9.372zM608 128h-192v192c0 8.487 3.371 16.628 9.372 22.628 6.003 6.001 14.141 9.372 22.628 9.372h128c8.487 0 16.626-3.371 22.628-9.372 6.001-6.001 9.372-14.141 9.372-22.628v-192z" />
<glyph unicode="&#xe911;" glyph-name="mail" d="M896 768h-768c-8.487 0-16.626-3.371-22.627-9.373s-9.373-14.14-9.373-22.627v-544c0-16.974 6.743-33.253 18.745-45.255 12.002-12.003 28.281-18.745 45.255-18.745h704c16.974 0 33.253 6.742 45.255 18.745 12.003 12.001 18.745 28.281 18.745 45.255v544c0 8.487-3.371 16.626-9.372 22.627-6.003 6.001-14.141 9.373-22.628 9.373zM512 427.399l-301.72 276.601h603.439l-301.72-276.601zM394.84 448l-234.84-215.241v430.481l234.84-215.241zM442.2 404.601l47.999-44.2c5.904-5.421 13.627-8.428 21.641-8.428s15.737 3.006 21.639 8.428l48.001 44.2 231.999-212.601h-603.199l231.92 212.601zM629.16 448l234.84 215.28v-430.559l-234.84 215.28z" />
<glyph unicode="&#xe912;" glyph-name="mapPin" d="M512 704c-31.646 0-62.579-9.384-88.891-26.964-26.313-17.582-46.819-42.57-58.929-71.807-12.11-29.235-15.278-61.407-9.105-92.443 6.175-31.037 21.412-59.548 43.788-81.924s50.887-37.614 81.924-43.788c31.035-6.173 63.207-3.004 92.443 9.105s54.225 32.616 71.807 58.929c17.58 26.313 26.964 57.246 26.964 88.891 0 42.435-16.857 83.13-46.862 113.138-30.007 30.005-70.703 46.862-113.138 46.862zM512 448c-18.987 0-37.548 5.63-53.334 16.179-15.788 10.549-28.092 25.541-35.359 43.084-7.266 17.541-9.167 36.844-5.462 55.466 3.703 18.622 12.847 35.727 26.272 49.154 13.427 13.425 30.532 22.569 49.154 26.272 18.622 3.705 37.925 1.804 55.466-5.462 17.543-7.266 32.535-19.571 43.084-35.359 10.549-15.786 16.179-34.347 16.179-53.334 0-25.461-10.115-49.879-28.117-67.883-18.004-18.002-42.422-28.117-67.883-28.117zM512 896c-93.323-0.106-182.794-37.225-248.785-103.215s-103.109-155.461-103.215-248.785c0-125.6 58.040-258.72 167.999-384.999 49.41-57.063 105.019-108.446 165.8-153.201 5.38-3.768 11.79-5.792 18.36-5.792s12.98 2.023 18.36 5.792c60.67 44.773 116.171 96.156 165.48 153.201 109.799 126.28 167.999 259.4 167.999 384.999-0.106 93.323-37.224 182.794-103.215 248.785s-155.462 103.109-248.785 103.215zM512 71.999c-66.12 52.001-288 243.001-288 472.001 0 76.382 30.343 149.637 84.353 203.647s127.265 84.353 203.647 84.353c76.382 0 149.637-30.343 203.647-84.353s84.353-127.265 84.353-203.647c0-228.919-221.88-420-288-472.001z" />
<glyph unicode="&#xe913;" glyph-name="paperclip" d="M619.147 862.646c33.907 30.72 78.326 47.226 124.064 46.1s89.293-19.798 121.645-52.15c32.35-32.352 51.024-75.906 52.148-121.645 1.126-45.738-15.378-90.157-46.098-124.062-0.338-0.373-0.682-0.737-1.034-1.094l-442.468-448.707c-0.469-0.477-0.952-0.938-1.448-1.386-20.343-18.434-46.993-28.336-74.437-27.66s-53.576 11.878-72.987 31.289c-19.411 19.411-30.614 45.543-31.289 72.987s9.226 54.094 27.66 74.437c0.326 0.36 0.659 0.715 0.999 1.061l371.175 377.412c13.804 14.037 36.372 14.225 50.409 0.42s14.225-36.372 0.42-50.409l-370.575-376.803c-5.886-6.722-9.038-15.415-8.817-24.361 0.225-9.148 3.959-17.859 10.428-24.33 6.472-6.47 15.182-10.203 24.33-10.428 8.87-0.219 17.492 2.877 24.191 8.669l441.076 447.295c18.131 20.275 27.863 46.707 27.193 73.918-0.676 27.442-11.88 53.574-31.291 72.985s-45.543 30.614-72.987 31.29c-27.132 0.668-53.492-9.005-73.744-27.038l-441.889-448.12c-33.377-33.376-52.129-78.643-52.129-125.846s18.751-92.471 52.129-125.848c33.376-33.378 78.645-52.13 125.848-52.13s92.469 18.751 125.848 52.13l365.857 364.966c13.939 13.904 36.51 13.875 50.414-0.061 13.904-13.939 13.875-36.51-0.061-50.414l-365.797-364.904c-46.748-46.748-110.15-73.009-176.259-73.009-66.111 0-129.513 26.262-176.261 73.009s-73.009 110.15-73.009 176.261c0 66.066 26.228 129.43 72.917 176.167l442.384 448.622c0.469 0.476 0.952 0.938 1.446 1.387z" />
<glyph unicode="&#xe914;" glyph-name="warningCircle" d="M512 837.908c-215.341 0-389.908-174.567-389.908-389.908s174.567-389.908 389.908-389.908c215.341 0 389.908 174.567 389.908 389.908s-174.567 389.908-389.908 389.908zM51.2 448c0 254.493 206.307 460.8 460.8 460.8s460.8-206.307 460.8-460.8c0-254.493-206.307-460.8-460.8-460.8s-460.8 206.307-460.8 460.8zM512 696.123c19.577 0 35.447-15.87 35.447-35.447v-248.123c0-19.575-15.87-35.445-35.447-35.445s-35.447 15.87-35.447 35.445v248.123c0 19.577 15.87 35.447 35.447 35.447zM512 199.877c29.364 0 53.17 23.806 53.17 53.17s-23.806 53.168-53.17 53.168c-29.364 0-53.17-23.804-53.17-53.168s23.806-53.17 53.17-53.17z" />
<glyph unicode="&#xe915;" glyph-name="warningDiamond" d="M512 672c8.487 0 16.628-3.371 22.628-9.374 6.001-6.001 9.372-14.139 9.372-22.626v-224c0-8.487-3.371-16.626-9.372-22.628-6.001-6.001-14.141-9.372-22.628-9.372s-16.626 3.371-22.626 9.372c-6.001 6.003-9.374 14.141-9.374 22.628v224c0 8.487 3.373 16.626 9.374 22.626 6.001 6.003 14.139 9.374 22.626 9.374zM464.001 271.999c0-9.492 2.814-18.772 8.090-26.667 5.274-7.893 12.771-14.045 21.541-17.678 8.772-3.633 18.422-4.583 27.734-2.732 9.31 1.853 17.863 6.425 24.576 13.138 6.713 6.711 11.284 15.266 13.138 24.576 1.851 9.31 0.901 18.962-2.732 27.734-3.633 8.77-9.785 16.267-17.678 21.541-7.895 5.274-17.175 8.090-26.669 8.090-12.73 0-24.938-5.057-33.939-14.060-9.003-9.001-14.060-21.211-14.060-33.942zM960 448c0.025-8.382-1.614-16.685-4.821-24.431s-7.916-14.776-13.859-20.689l-384.199-384.24c-11.991-11.921-28.213-18.612-45.122-18.612-16.906 0-33.128 6.691-45.119 18.612l-384 384.24c-11.92 11.991-18.611 28.211-18.611 45.119s6.691 33.128 18.611 45.119l384.2 384.24c11.991 11.92 28.211 18.611 45.119 18.611s33.128-6.691 45.119-18.611l384.201-384.24c5.906-5.929 10.58-12.968 13.75-20.711 3.172-7.746 4.78-16.040 4.729-24.408zM896 448l-384 384-383.999-384 383.999-384 384 384z" />
<glyph unicode="&#xe916;" glyph-name="warningDiamond-fill" d="M941.32 493.119l-384.199 384.24c-11.991 11.92-28.213 18.611-45.122 18.611-16.906 0-33.128-6.691-45.119-18.611l-384-384.24c-11.92-11.991-18.611-28.211-18.611-45.119s6.691-33.128 18.611-45.119l384.2-384.24c11.991-11.921 28.211-18.612 45.119-18.612s33.128 6.691 45.119 18.612l384.201 384.24c11.919 11.991 18.61 28.211 18.61 45.119s-6.691 33.128-18.61 45.119h-0.201zM480 640c0 8.487 3.373 16.626 9.374 22.626 6.001 6.003 14.139 9.374 22.626 9.374s16.628-3.371 22.628-9.374c6.001-6.001 9.372-14.139 9.372-22.626v-224c0-8.487-3.371-16.626-9.372-22.628-6.001-6.001-14.141-9.372-22.628-9.372s-16.626 3.371-22.626 9.372c-6.001 6.003-9.374 14.141-9.374 22.628v224zM512 224c-9.492 0-18.774 2.816-26.667 8.090s-14.045 12.771-17.678 21.541c-3.633 8.772-4.583 18.422-2.732 27.734 1.853 9.31 6.425 17.863 13.138 24.576 6.711 6.713 15.266 11.284 24.576 13.138 9.31 1.851 18.962 0.901 27.734-2.732 8.77-3.633 16.267-9.785 21.541-17.678 5.274-7.895 8.090-17.175 8.090-26.669 0-12.73-5.057-24.938-14.060-33.939-9.001-9.003-21.211-14.060-33.942-14.060z" />
<glyph unicode="&#xe917;" glyph-name="whatsapp" d="M750.322 380.639l-128 64c-5.040 2.511-10.652 3.65-16.269 3.297-5.618-0.35-11.045-2.177-15.731-5.296l-58.761-39.201c-26.974 14.83-49.17 37.026-64 64l39.201 58.761c3.119 4.686 4.946 10.113 5.296 15.731 0.352 5.618-0.786 11.229-3.297 16.269l-64 128c-2.652 5.356-6.752 9.863-11.835 13.009s-10.947 4.807-16.925 4.79c-42.435 0-83.13-16.857-113.136-46.862-30.007-30.007-46.864-70.703-46.864-113.138 0.106-93.323 37.226-182.794 103.215-248.785 65.991-65.991 155.462-103.109 248.785-103.215 21.012 0 41.818 4.139 61.231 12.179 19.411 8.040 37.050 19.827 51.907 34.683 14.858 14.858 26.642 32.496 34.683 51.909 8.042 19.411 12.179 40.217 12.179 61.229 0.004 5.945-1.647 11.774-4.77 16.833s-7.592 9.146-12.909 11.807zM608 256c-76.356 0.084-149.559 30.454-203.553 84.447-53.991 53.991-84.361 127.197-84.447 203.553-0.006 22.196 7.68 43.706 21.748 60.875 14.068 17.166 33.649 28.93 55.413 33.286l45.92-92-39.080-58.161c-2.92-4.381-4.714-9.413-5.224-14.653-0.508-5.241 0.283-10.525 2.304-15.387 22.897-54.415 66.185-97.704 120.601-120.599 4.876-2.114 10.201-2.978 15.493-2.517 5.294 0.461 10.39 2.234 14.828 5.157l58.44 38.959 92-45.92c-4.391-21.789-16.204-41.38-33.427-55.429-17.222-14.049-38.787-21.686-61.014-21.61zM512 864c-71.821 0.016-142.422-18.563-204.933-53.929s-114.8-86.314-151.779-147.883c-36.979-61.569-57.388-131.666-59.239-203.463s14.916-142.852 48.673-206.246l-45.4-136.2c-3.761-11.276-4.306-23.378-1.576-34.947s8.629-22.149 17.034-30.554c8.405-8.405 18.986-14.303 30.555-17.033 11.569-2.732 23.67-2.185 34.947 1.575l136.201 45.4c55.79-29.673 117.608-46.248 180.761-48.464s125.981 9.984 183.714 35.674c57.733 25.692 108.855 64.197 149.486 112.595s69.7 105.415 85.004 166.726c15.305 61.311 16.439 125.301 3.32 187.116s-40.149 119.828-79.036 169.638c-38.887 49.807-88.611 90.103-145.396 117.826-56.787 27.723-119.14 42.144-182.333 42.17zM512 96c-61.88-0.043-122.675 16.253-176.239 47.239-3.922 2.275-8.282 3.69-12.792 4.151-4.51 0.463-9.066-0.039-13.369-1.47l-149.599-49.92 49.88 149.6c1.438 4.299 1.946 8.854 1.491 13.363s-1.864 8.872-4.131 12.796c-38.802 67.084-54.38 145.097-44.319 221.938s45.198 148.214 99.961 203.047c54.766 54.833 126.093 90.061 202.922 100.219 76.827 10.158 154.86-5.322 221.993-44.038 67.131-38.717 119.611-98.505 149.297-170.090s34.916-150.968 14.883-225.829c-20.034-74.863-64.213-141.021-125.684-188.213s-136.796-72.78-214.295-72.792z" />
<glyph unicode="&#xe918;" glyph-name="world" d="M136.104 573.428c-15.682-42.25-24.251-87.958-24.251-135.668 0-201.871 153.413-367.911 350.013-387.891l15.925 53.084-101.882 120.404c-7.342 8.677-9.292 20.699-5.071 31.252l44.589 111.471h-16.067c-11.635 0-22.272 6.574-27.476 16.982l-24.25 48.499-119.022 27.466c-7.213 1.665-13.582 5.878-17.936 11.866l-74.572 102.535zM231.649 718.95l-43.381-112.79 65.344-89.848 22.075-5.095 19.614 86.79c3.494 15.458 18.174 25.723 33.892 23.697l95.48-12.308 44.622 18.393 112.079 147.545-40.767 50.422c-12.777 1.264-25.737 1.911-38.846 1.911-104.851 0-200.038-41.387-270.111-108.717zM335.555 497.404l39.993-9.23c8.929-2.060 16.472-7.999 20.57-16.196l22.229-44.458h21.656l12.755 31.889c5.044 12.614 17.775 20.414 31.304 19.186l112.64-10.24c5.194-0.473 10.181-2.259 14.494-5.192l252.185-171.485c18.244 45.115 28.289 94.425 28.289 146.082 0 167.496-105.615 310.325-253.882 365.523l6.504-8.043c8.888-10.995 9.126-26.638 0.573-37.897l-131.688-173.36c-3.303-4.35-7.707-7.739-12.755-9.82l-59.877-24.678c-4.944-2.038-10.332-2.75-15.634-2.066l-75.842 9.775-13.513-59.789zM835.736 236.429c-1.053 0.549-2.085 1.165-3.090 1.847l-249.424 169.609-81.922 7.449-66.556-166.392 100.708-119.020c6.711-7.932 8.958-18.719 5.974-28.67l-15.806-52.683c131.664 7.948 245.699 81.232 310.116 187.859zM40.96 437.76c0 254.493 206.307 460.8 460.8 460.8s460.8-206.307 460.8-460.8c0-254.493-206.307-460.8-460.8-460.8s-460.8 206.307-460.8 460.8z" />
</font>
</defs>
</svg>
