<svg width="200" height="200" viewBox="0 0 200 200" fill="none" xmlns="http://www.w3.org/2000/svg">
<g clip-path="url(#clip0_1182_229)">
<path fill-rule="evenodd" clip-rule="evenodd" d="M46.151 46.1511C16.4111 75.891 16.4111 124.109 46.151 153.849C75.891 183.589 124.109 183.589 153.849 153.849C183.589 124.109 183.589 75.891 153.849 46.1511C124.109 16.4112 75.891 16.4112 46.151 46.1511ZM36.3603 163.64C1.21313 128.492 1.21313 71.5076 36.3603 36.3604C71.5075 1.2132 128.492 1.2132 163.64 36.3604C198.787 71.5076 198.787 128.492 163.64 163.64C128.492 198.787 71.5075 198.787 36.3603 163.64Z" fill="#45485C"/>
<path fill-rule="evenodd" clip-rule="evenodd" d="M99.9994 53.9141C103.823 53.9141 106.923 57.0137 106.923 60.8372V139.163C106.923 142.986 103.823 146.086 99.9994 146.086C96.1759 146.086 93.0764 142.986 93.0764 139.163V60.8372C93.0764 57.0137 96.1759 53.9141 99.9994 53.9141Z" fill="#45485C"/>
<path fill-rule="evenodd" clip-rule="evenodd" d="M53.9135 100C53.9135 96.1765 57.0131 93.0769 60.8366 93.0769L139.162 93.0769C142.986 93.0769 146.085 96.1765 146.085 100C146.085 103.824 142.986 106.923 139.162 106.923L60.8366 106.923C57.0131 106.923 53.9135 103.824 53.9135 100Z" fill="#45485C"/>
</g>
<defs>
<clipPath id="clip0_1182_229">
<rect width="200" height="200" fill="white"/>
</clipPath>
</defs>
</svg>
