<svg width="50" height="50" viewBox="0 0 50 50" fill="none" xmlns="http://www.w3.org/2000/svg">
<path d="M25 13.4785C25.9559 13.4785 26.7308 14.2534 26.7308 15.2093V23.2692H34.7907C35.7466 23.2692 36.5215 24.0441 36.5215 25C36.5215 25.9559 35.7466 26.7308 34.7907 26.7308H26.7308V34.7907C26.7308 35.7466 25.9559 36.5215 25 36.5215C24.0441 36.5215 23.2692 35.7466 23.2692 34.7907V26.7308H15.2093C14.2534 26.7308 13.4785 25.9559 13.4785 25C13.4785 24.0441 14.2534 23.2692 15.2093 23.2692H23.2692V15.2093C23.2692 14.2534 24.0441 13.4785 25 13.4785Z" fill="#45485C"/>
<path fill-rule="evenodd" clip-rule="evenodd" d="M9.0901 40.9099C0.3033 32.1231 0.3033 17.8769 9.0901 9.0901C17.8769 0.303299 32.1231 0.303302 40.9099 9.0901C49.6967 17.8769 49.6967 32.1231 40.9099 40.9099C32.1231 49.6967 17.8769 49.6967 9.0901 40.9099ZM11.5378 11.5378C4.10279 18.9728 4.10279 31.0272 11.5378 38.4622C18.9728 45.8972 31.0272 45.8972 38.4622 38.4622C45.8972 31.0272 45.8972 18.9728 38.4622 11.5378C31.0272 4.10279 18.9728 4.10279 11.5378 11.5378Z" fill="#45485C"/>
</svg>
