<svg width="200" height="200" viewBox="0 0 200 200" fill="none" xmlns="http://www.w3.org/2000/svg">
<path fill-rule="evenodd" clip-rule="evenodd" d="M100.152 20.0004C104.116 20.0004 107.329 23.2137 107.329 27.1775L107.329 173.823C107.329 177.787 104.116 181 100.152 181C96.188 181 92.9747 177.787 92.9747 173.823L92.9747 27.1775C92.9746 23.2137 96.188 20.0004 100.152 20.0004Z" fill="#45485C"/>
<path fill-rule="evenodd" clip-rule="evenodd" d="M29.1021 98.2272C26.2993 95.4243 26.2993 90.88 29.1021 88.0772L95.0771 22.1021C97.88 19.2993 102.424 19.2993 105.227 22.1021L171.202 88.0772C174.005 90.88 174.005 95.4243 171.202 98.2272C168.399 101.03 163.855 101.03 161.052 98.2272L100.152 37.3271L39.2521 98.2272C36.4493 101.03 31.905 101.03 29.1021 98.2272Z" fill="#45485C"/>
</svg>
