<svg width="200" height="200" viewBox="0 0 200 200" fill="none" xmlns="http://www.w3.org/2000/svg">
<path fill-rule="evenodd" clip-rule="evenodd" d="M100.153 181C96.1891 181 92.9758 177.786 92.9758 173.822L92.9758 27.1771C92.9758 23.2133 96.1891 20 100.153 20C104.117 20 107.33 23.2133 107.33 27.1771L107.33 173.822C107.33 177.786 104.117 181 100.153 181Z" fill="#45485C"/>
<path fill-rule="evenodd" clip-rule="evenodd" d="M171.203 102.773C174.005 105.576 174.005 110.12 171.203 112.923L105.228 178.898C102.425 181.701 97.8804 181.701 95.0775 178.898L29.1025 112.923C26.2997 110.12 26.2997 105.576 29.1025 102.773C31.9054 99.97 36.4497 99.97 39.2525 102.773L100.153 163.673L161.053 102.773C163.855 99.97 168.4 99.97 171.203 102.773Z" fill="#45485C"/>
</svg>
