<svg width="200" height="200" viewBox="0 0 200 200" fill="none" xmlns="http://www.w3.org/2000/svg">
<g clip-path="url(#clip0_1182_731)">
<path fill-rule="evenodd" clip-rule="evenodd" d="M43.2308 43.5784C46.0337 40.7755 50.578 40.7755 53.3808 43.5784L157.075 147.272C159.878 150.075 159.878 154.619 157.075 157.422C154.272 160.225 149.728 160.225 146.925 157.422L43.2308 53.7284C40.428 50.9255 40.428 46.3812 43.2308 43.5784Z" fill="#45485C"/>
<path fill-rule="evenodd" clip-rule="evenodd" d="M48.3058 149.133C44.342 149.133 41.1287 145.919 41.1287 141.956L41.1287 48.6529C41.1287 44.689 44.342 41.4758 48.3058 41.4758L141.609 41.4757C145.572 41.4757 148.786 44.689 148.786 48.6529C148.786 52.6167 145.572 55.83 141.609 55.83L55.483 55.83L55.483 141.956C55.483 145.919 52.2697 149.133 48.3058 149.133Z" fill="#45485C"/>
</g>
<defs>
<clipPath id="clip0_1182_731">
<rect width="200" height="200" fill="white"/>
</clipPath>
</defs>
</svg>
