<svg width="200" height="200" viewBox="0 0 200 200" fill="none" xmlns="http://www.w3.org/2000/svg">
<g clip-path="url(#clip0_1182_735)">
<path fill-rule="evenodd" clip-rule="evenodd" d="M43.2317 157.422C40.4289 154.619 40.4289 150.074 43.2317 147.272L146.926 43.5776C149.728 40.7747 154.273 40.7747 157.076 43.5776C159.878 46.3804 159.878 50.9247 157.076 53.7276L53.3817 157.422C50.5789 160.224 46.0346 160.224 43.2317 157.422Z" fill="#45485C"/>
<path fill-rule="evenodd" clip-rule="evenodd" d="M148.786 152.347C148.786 156.31 145.573 159.524 141.609 159.524L48.3062 159.524C44.3424 159.524 41.1291 156.31 41.1291 152.347L41.1291 59.0437C41.1291 55.0799 44.3424 51.8666 48.3062 51.8666C52.27 51.8666 55.4833 55.0799 55.4833 59.0437V145.169H141.609C145.573 145.169 148.786 148.383 148.786 152.347Z" fill="#45485C"/>
</g>
<defs>
<clipPath id="clip0_1182_735">
<rect width="200" height="200" fill="white"/>
</clipPath>
</defs>
</svg>
