<svg width="200" height="200" viewBox="0 0 200 200" fill="none" xmlns="http://www.w3.org/2000/svg">
<path fill-rule="evenodd" clip-rule="evenodd" d="M19.6527 100.501C19.6527 96.5367 22.866 93.3234 26.8299 93.3234L173.475 93.3234C177.439 93.3234 180.652 96.5367 180.652 100.501C180.652 104.464 177.439 107.678 173.475 107.678L26.8299 107.678C22.866 107.678 19.6527 104.464 19.6527 100.501Z" fill="#45485C"/>
<path fill-rule="evenodd" clip-rule="evenodd" d="M97.8795 171.55C95.0767 174.353 90.5323 174.353 87.7295 171.55L21.7545 105.575C18.9516 102.772 18.9517 98.228 21.7545 95.4252L87.7295 29.4502C90.5324 26.6473 95.0767 26.6473 97.8795 29.4502C100.682 32.253 100.682 36.7973 97.8795 39.6002L36.9795 100.5L97.8795 161.4C100.682 164.203 100.682 168.747 97.8795 171.55Z" fill="#45485C"/>
</svg>
