<svg width="200" height="200" viewBox="0 0 200 200" fill="none" xmlns="http://www.w3.org/2000/svg">
<path fill-rule="evenodd" clip-rule="evenodd" d="M180.652 100.499C180.652 104.463 177.439 107.677 173.475 107.677L26.8295 107.677C22.8657 107.677 19.6523 104.463 19.6523 100.499C19.6524 96.5356 22.8657 93.3223 26.8295 93.3223L173.475 93.3223C177.439 93.3223 180.652 96.5356 180.652 100.499Z" fill="#45485C"/>
<path fill-rule="evenodd" clip-rule="evenodd" d="M102.425 29.4498C105.228 26.6469 109.772 26.6469 112.575 29.4498L178.55 95.4248C181.353 98.2277 181.353 102.772 178.55 105.575L112.575 171.55C109.772 174.353 105.228 174.353 102.425 171.55C99.6223 168.747 99.6223 164.203 102.425 161.4L163.325 100.5L102.425 39.5998C99.6223 36.7969 99.6223 32.2526 102.425 29.4498Z" fill="#45485C"/>
</svg>
