<svg width="200" height="200" viewBox="0 0 200 200" fill="none" xmlns="http://www.w3.org/2000/svg">
<g clip-path="url(#clip0_1182_737)">
<path fill-rule="evenodd" clip-rule="evenodd" d="M157.076 157.421C154.273 160.223 149.729 160.223 146.926 157.421L43.2319 53.7267C40.429 50.9239 40.429 46.3796 43.2319 43.5767C46.0347 40.7739 50.579 40.7739 53.3819 43.5767L157.076 147.271C159.879 150.073 159.879 154.618 157.076 157.421Z" fill="#45485C"/>
<path fill-rule="evenodd" clip-rule="evenodd" d="M152.001 51.8663C155.965 51.8663 159.178 55.0796 159.178 59.0434L159.178 152.346C159.178 156.31 155.965 159.523 152.001 159.523L58.698 159.523C54.7342 159.523 51.5209 156.31 51.5209 152.346C51.5209 148.382 54.7342 145.169 58.698 145.169H144.824V59.0434C144.824 55.0796 148.037 51.8663 152.001 51.8663Z" fill="#45485C"/>
</g>
<defs>
<clipPath id="clip0_1182_737">
<rect width="200" height="200" fill="white"/>
</clipPath>
</defs>
</svg>
