<svg width="200" height="200" viewBox="0 0 200 200" fill="none" xmlns="http://www.w3.org/2000/svg">
<g clip-path="url(#clip0_1182_733)">
<path fill-rule="evenodd" clip-rule="evenodd" d="M157.075 43.5775C159.878 46.3804 159.878 50.9247 157.075 53.7275L53.381 157.421C50.5782 160.224 46.0339 160.224 43.231 157.421C40.4282 154.619 40.4282 150.074 43.231 147.271L146.925 43.5775C149.728 40.7747 154.272 40.7747 157.075 43.5775Z" fill="#45485C"/>
<path fill-rule="evenodd" clip-rule="evenodd" d="M51.5205 48.6525C51.5205 44.6887 54.7339 41.4754 58.6977 41.4754L152 41.4754C155.964 41.4754 159.178 44.6887 159.178 48.6525L159.178 141.955C159.178 145.919 155.964 149.132 152 149.132C148.037 149.132 144.823 145.919 144.823 141.955V55.8296H58.6977C54.7339 55.8296 51.5205 52.6163 51.5205 48.6525Z" fill="#45485C"/>
</g>
<defs>
<clipPath id="clip0_1182_733">
<rect width="200" height="200" fill="white"/>
</clipPath>
</defs>
</svg>
