<svg width="200" height="200" viewBox="0 0 200 200" fill="none" xmlns="http://www.w3.org/2000/svg">
<path fill-rule="evenodd" clip-rule="evenodd" d="M14 182.8C14 178.823 17.2235 175.6 21.2 175.6H179.6C183.576 175.6 186.8 178.823 186.8 182.8C186.8 186.776 183.576 190 179.6 190H21.2C17.2235 190 14 186.776 14 182.8Z" fill="#45485C"/>
<path fill-rule="evenodd" clip-rule="evenodd" d="M122 161.2C114.047 161.2 107.6 154.753 107.6 146.8V60.4002C107.6 52.4473 114.047 46.0002 122 46.0002H158C165.953 46.0002 172.4 52.4473 172.4 60.4002V146.8C172.4 154.753 165.953 161.2 158 161.2H122ZM122 60.4002V146.8H158V60.4002H122Z" fill="#45485C"/>
<path fill-rule="evenodd" clip-rule="evenodd" d="M28.4004 24.4C28.4004 16.4471 34.8475 10 42.8004 10H78.8004C86.7533 10 93.2004 16.4471 93.2004 24.4V146.8C93.2004 154.753 86.7533 161.2 78.8004 161.2H42.8004C34.8475 161.2 28.4004 154.753 28.4004 146.8V24.4ZM78.8004 24.4H42.8004V146.8H78.8004V24.4Z" fill="#45485C"/>
</svg>
