<svg width="200" height="200" viewBox="0 0 200 200" fill="none" xmlns="http://www.w3.org/2000/svg">
<path fill-rule="evenodd" clip-rule="evenodd" d="M17 37.6919C17 30.0448 23.1991 23.8457 30.8462 23.8457H169.308C176.955 23.8457 183.154 30.0448 183.154 37.6919V176.153C183.154 183.8 176.955 190 169.308 190H30.8462C23.1991 190 17 183.8 17 176.153V37.6919ZM169.308 37.6919H30.8462V176.153H169.308V37.6919Z" fill="#45485C"/>
<path fill-rule="evenodd" clip-rule="evenodd" d="M141.615 10C145.439 10 148.539 13.0996 148.539 16.9231V44.6154C148.539 48.4389 145.439 51.5385 141.615 51.5385C137.792 51.5385 134.692 48.4389 134.692 44.6154V16.9231C134.692 13.0996 137.792 10 141.615 10Z" fill="#45485C"/>
<path fill-rule="evenodd" clip-rule="evenodd" d="M58.5383 10C62.3618 10 65.4614 13.0996 65.4614 16.9231V44.6154C65.4614 48.4389 62.3618 51.5385 58.5383 51.5385C54.7148 51.5385 51.6152 48.4389 51.6152 44.6154V16.9231C51.6152 13.0996 54.7148 10 58.5383 10Z" fill="#45485C"/>
<path fill-rule="evenodd" clip-rule="evenodd" d="M17 72.3078C17 68.4843 20.0996 65.3848 23.9231 65.3848H176.231C180.054 65.3848 183.154 68.4843 183.154 72.3078C183.154 76.1314 180.054 79.2309 176.231 79.2309H23.9231C20.0996 79.2309 17 76.1314 17 72.3078Z" fill="#45485C"/>
</svg>
