<svg width="50" height="50" viewBox="0 0 50 50" fill="none" xmlns="http://www.w3.org/2000/svg">
<path d="M46.25 36.7363L29.1699 7.07423C28.7431 6.34752 28.1338 5.74497 27.4024 5.3263C26.6709 4.90763 25.8428 4.68738 25 4.68738C24.1572 4.68738 23.3291 4.90763 22.5977 5.3263C21.8662 5.74497 21.2569 6.34752 20.8301 7.07423L3.75002 36.7363C3.33935 37.4392 3.12292 38.2387 3.12292 39.0527C3.12292 39.8668 3.33935 40.6663 3.75002 41.3691C4.17137 42.1002 4.77965 42.7061 5.51244 43.1245C6.24524 43.5429 7.07616 43.7588 7.91994 43.75H42.0801C42.9232 43.7581 43.7533 43.5418 44.4854 43.1235C45.2174 42.7051 45.8251 42.0997 46.2461 41.3691C46.6574 40.6666 46.8745 39.8673 46.8752 39.0533C46.8759 38.2392 46.6601 37.4396 46.25 36.7363ZM23.4375 20.3125C23.4375 19.8981 23.6021 19.5007 23.8952 19.2077C24.1882 18.9146 24.5856 18.75 25 18.75C25.4144 18.75 25.8119 18.9146 26.1049 19.2077C26.3979 19.5007 26.5625 19.8981 26.5625 20.3125V28.125C26.5625 28.5394 26.3979 28.9368 26.1049 29.2299C25.8119 29.5229 25.4144 29.6875 25 29.6875C24.5856 29.6875 24.1882 29.5229 23.8952 29.2299C23.6021 28.9368 23.4375 28.5394 23.4375 28.125V20.3125ZM25 37.5C24.5365 37.5 24.0833 37.3625 23.6979 37.105C23.3125 36.8475 23.0121 36.4814 22.8347 36.0532C22.6573 35.6249 22.6109 35.1537 22.7013 34.699C22.7917 34.2444 23.015 33.8268 23.3427 33.499C23.6705 33.1712 24.0881 32.948 24.5428 32.8575C24.9974 32.7671 25.4687 32.8135 25.8969 32.9909C26.3252 33.1683 26.6912 33.4687 26.9488 33.8541C27.2063 34.2396 27.3438 34.6927 27.3438 35.1563C27.3438 35.7779 27.0968 36.374 26.6573 36.8135C26.2178 37.2531 25.6216 37.5 25 37.5Z" fill="#45485C"/>
</svg>
