<svg width="50" height="50" viewBox="0 0 50 50" fill="none" xmlns="http://www.w3.org/2000/svg">
<path fill-rule="evenodd" clip-rule="evenodd" d="M22.5902 5.64817C23.3223 5.2236 24.1537 5 25 5C25.8463 5 26.6777 5.2236 27.4098 5.64817C28.1407 6.07201 28.7469 6.68112 29.1672 7.41402L29.1693 7.41775L46.8537 37.9635C47.2764 38.6956 47.4992 39.5259 47.5 40.3712C47.5007 41.2165 47.2793 42.0472 46.858 42.78C46.4366 43.5128 45.8301 44.1221 45.0991 44.5467C44.3681 44.9713 43.5385 45.1963 42.6931 45.1993L42.6875 45.1993H7.31253L7.30687 45.1993C6.46155 45.1963 5.63185 44.9713 4.90089 44.5467C4.16994 44.1221 3.56339 43.5128 3.14202 42.78C2.72065 42.0472 2.49925 41.2165 2.5 40.3712C2.50075 39.5259 2.72362 38.6956 3.14629 37.9635L20.8307 7.41775L20.8328 7.41402C21.2531 6.68112 21.8593 6.07201 22.5902 5.64817ZM22.2263 8.21641L23.6178 9.02205L5.93133 39.5715C5.79068 39.8154 5.71615 40.0925 5.7159 40.374C5.71565 40.6558 5.78945 40.9327 5.92991 41.177C6.07037 41.4213 6.27255 41.6243 6.5162 41.7659C6.75922 41.907 7.03498 41.982 7.316 41.9834H42.684C42.965 41.982 43.2408 41.907 43.4838 41.7659C43.7274 41.6243 43.9296 41.4213 44.0701 41.177C44.2105 40.9327 44.2843 40.6558 44.2841 40.374C44.2838 40.0926 44.2098 39.8162 44.0692 39.5724L26.3781 9.01509C26.2392 8.77228 26.0385 8.57049 25.7965 8.43015C25.5545 8.28981 25.2798 8.2159 25 8.2159C24.7202 8.2159 24.4455 8.28981 24.2035 8.43015C23.9614 8.57049 23.7608 8.77227 23.6219 9.01508L22.2263 8.21641ZM25.0003 19.4716C25.8884 19.4716 26.6083 20.1915 26.6083 21.0795V29.1193C26.6083 30.0073 25.8884 30.7272 25.0003 30.7272C24.1123 30.7272 23.3924 30.0073 23.3924 29.1193V21.0795C23.3924 20.1915 24.1123 19.4716 25.0003 19.4716ZM27.4122 36.3551C27.4122 37.6871 26.3324 38.767 25.0003 38.767C23.6682 38.767 22.5884 37.6871 22.5884 36.3551C22.5884 35.023 23.6682 33.9431 25.0003 33.9431C26.3324 33.9431 27.4122 35.023 27.4122 36.3551Z" fill="#45485C"/>
</svg>
