<svg width="200" height="200" viewBox="0 0 200 200" fill="none" xmlns="http://www.w3.org/2000/svg">
<path fill-rule="evenodd" clip-rule="evenodd" d="M100.001 77.8867C103.553 77.8867 106.433 80.7663 106.433 84.3185V116.478C106.433 120.03 103.553 122.909 100.001 122.909C96.449 122.909 93.5693 120.03 93.5693 116.478V84.3185C93.5693 80.7663 96.449 77.8867 100.001 77.8867Z" fill="#45485C"/>
<path fill-rule="evenodd" clip-rule="evenodd" d="M90.3608 22.5927C93.2894 20.8944 96.6146 20 100 20C103.385 20 106.711 20.8944 109.639 22.5927C112.563 24.288 114.987 26.7245 116.669 29.6561C116.671 29.661 116.674 29.666 116.677 29.671L187.415 151.854C189.106 154.782 189.997 158.103 190 161.485C190.003 164.866 189.117 168.189 187.432 171.12C185.746 174.051 183.32 176.488 180.396 178.187C177.473 179.885 174.154 180.785 170.773 180.797L170.75 180.797H29.2501L29.2275 180.797C25.8462 180.785 22.5274 179.885 19.6036 178.187C16.6798 176.488 14.2536 174.051 12.5681 171.12C10.8826 168.189 9.99701 164.866 10 161.485C10.003 158.103 10.8945 154.782 12.5852 151.854L83.3228 29.671C83.3256 29.666 83.3285 29.661 83.3313 29.6561C85.0125 26.7245 87.4372 24.288 90.3608 22.5927ZM88.9051 32.8656L94.4714 36.0882L23.7253 158.286C23.7249 158.287 23.7258 158.285 23.7253 158.286C23.1627 159.261 22.8646 160.37 22.8636 161.496C22.8626 162.623 23.1578 163.731 23.7196 164.708C24.2815 165.685 25.0902 166.497 26.0648 167.063C27.0369 167.628 28.1399 167.928 29.264 167.934H170.736C171.86 167.928 172.963 167.628 173.935 167.063C174.91 166.497 175.718 165.685 176.28 164.708C176.842 163.731 177.137 162.623 177.136 161.496C177.135 160.371 176.839 159.265 176.277 158.29C176.276 158.288 176.278 158.291 176.277 158.29L105.512 36.0603C104.957 35.0891 104.154 34.282 103.186 33.7206C102.218 33.1593 101.119 32.8636 100 32.8636C98.881 32.8636 97.7818 33.1593 96.8138 33.7206C95.8458 34.282 95.0432 35.0891 94.4874 36.0603L88.9051 32.8656Z" fill="#45485C"/>
<path d="M100.001 155.068C105.33 155.068 109.649 150.748 109.649 145.42C109.649 140.092 105.33 135.772 100.001 135.772C94.6729 135.772 90.3535 140.092 90.3535 145.42C90.3535 150.748 94.6729 155.068 100.001 155.068Z" fill="#45485C"/>
</svg>
