<svg width="50" height="50" viewBox="0 0 50 50" fill="none" xmlns="http://www.w3.org/2000/svg">
<path d="M35.223 21.0017C35.9143 20.3263 35.9272 19.2183 35.2517 18.527C34.5763 17.8357 33.4683 17.8228 32.777 18.4983L22.2268 28.8062L18.47 25.1532C17.7771 24.4795 16.6691 24.495 15.9953 25.1879C15.3216 25.8808 15.3371 26.9888 16.03 27.6625L21.0098 32.5047C21.6902 33.1663 22.7739 33.165 23.4527 32.5017L35.223 21.0017Z" fill="#45485C"/>
<path fill-rule="evenodd" clip-rule="evenodd" d="M25 2.50024C12.5736 2.50025 2.5 12.5738 2.5 25.0002C2.5 37.4267 12.5736 47.5002 25 47.5002C37.4264 47.5002 47.5 37.4267 47.5 25.0002C47.5 12.5738 37.4264 2.50025 25 2.50024ZM5.96154 25.0002C5.96154 14.4856 14.4853 5.96178 25 5.96178C35.5147 5.96179 44.0385 14.4856 44.0385 25.0002C44.0385 35.5149 35.5147 44.0387 25 44.0387C14.4853 44.0387 5.96154 35.5149 5.96154 25.0002Z" fill="#45485C"/>
</svg>
