<svg width="50" height="50" viewBox="0 0 50 50" fill="none" xmlns="http://www.w3.org/2000/svg">
<path fill-rule="evenodd" clip-rule="evenodd" d="M7 9.5H19.5V22.5H5.5V11C5.5 10.1716 6.17157 9.5 7 9.5ZM23 22.5V9.5H43C43.8284 9.5 44.5 10.1716 44.5 11V22.5H23ZM5.5 26V38C5.5 38.8284 6.17157 39.5 7 39.5H43C43.8284 39.5 44.5 38.8284 44.5 38V26H5.5ZM2 11C2 8.23858 4.23858 6 7 6H43C45.7614 6 48 8.23858 48 11V38C48 40.7614 45.7614 43 43 43H7C4.23858 43 2 40.7614 2 38V11ZM12.7853 12.8781C12.6955 12.6017 12.3045 12.6017 12.2147 12.8781L11.557 14.9021C11.5169 15.0257 11.4017 15.1094 11.2717 15.1094H9.14355C8.85293 15.1094 8.7321 15.4813 8.96722 15.6521L10.6889 16.903C10.7941 16.9794 10.8381 17.1148 10.7979 17.2384L10.1403 19.2625C10.0505 19.5389 10.3668 19.7687 10.6019 19.5979L12.3237 18.347C12.4288 18.2706 12.5712 18.2706 12.6763 18.347L14.3981 19.5979C14.6332 19.7687 14.9495 19.5389 14.8597 19.2625L14.2021 17.2384C14.1619 17.1148 14.2059 16.9794 14.3111 16.903L16.0328 15.6521C16.2679 15.4813 16.1471 15.1094 15.8564 15.1094H13.7283C13.5983 15.1094 13.4831 15.0257 13.443 14.9021L12.7853 12.8781Z" fill="#45485C"/>
</svg>
