<svg width="200" height="200" viewBox="0 0 200 200" fill="none" xmlns="http://www.w3.org/2000/svg">
<path fill-rule="evenodd" clip-rule="evenodd" d="M29.495 28H170.505C181.272 28 190 36.7402 190 47.5204V153.122C190 163.903 181.272 172.643 170.505 172.643H29.495C18.7276 172.643 10 163.903 10 153.122V47.5204C10 36.7402 18.7276 28 29.495 28ZM29.495 42.1234C26.5194 42.1234 24.106 44.539 24.106 47.5204V91.2106H77.7004V42.1234H29.495ZM24.106 105.139H175.894V153.122C175.894 156.104 173.481 158.519 170.505 158.519H29.495C26.5194 158.519 24.106 156.104 24.106 153.122V105.139ZM175.894 91.7464V91.7556H90.8934V91.7464H175.894ZM175.894 91.2106H90.8934V42.1234H170.505C173.481 42.1234 175.894 44.539 175.894 47.5204V91.2106ZM10.5362 104.607V47.5538V47.5206C10.5362 37.0357 19.0246 28.536 29.4955 28.536H29.726H90.8934H170.505H29.4955C19.0246 28.536 10.5362 37.0357 10.5362 47.5206L10.5357 153.122L10.5362 104.607ZM49.6955 52.0308C50.0162 51.0437 51.4127 51.0437 51.7334 52.0308L54.6835 61.1103C54.827 61.5517 55.2384 61.8506 55.7025 61.8506H65.2492C66.2872 61.8506 66.7187 63.1788 65.879 63.7889L58.1555 69.4003C57.78 69.6731 57.6229 70.1567 57.7663 70.5982L60.7164 79.6776C61.0372 80.6648 59.9074 81.4856 59.0677 80.8755L51.3442 75.2641C50.9687 74.9913 50.4602 74.9913 50.0847 75.2641L42.3612 80.8755C41.5215 81.4856 40.3917 80.6648 40.7125 79.6776L43.6626 70.5982C43.806 70.1567 43.6489 69.6731 43.2733 69.4003L35.5499 63.7889C34.7102 63.1788 35.1417 61.8506 36.1797 61.8506H45.7264C46.1905 61.8506 46.6019 61.5517 46.7454 61.1103L49.6955 52.0308Z" fill="#45485C"/>
</svg>
