<svg width="50" height="50" viewBox="0 0 50 50" fill="none" xmlns="http://www.w3.org/2000/svg">
<path fill-rule="evenodd" clip-rule="evenodd" d="M44.0385 25C44.0385 14.4853 35.5147 5.96154 25 5.96154C14.4853 5.96154 5.96154 14.4853 5.96154 25C5.96154 35.5147 14.4853 44.0385 25 44.0385C35.5147 44.0385 44.0385 35.5147 44.0385 25ZM25 2.5C37.4264 2.5 47.5 12.5736 47.5 25C47.5 37.4264 37.4264 47.5 25 47.5C12.5736 47.5 2.5 37.4264 2.5 25C2.5 12.5736 12.5736 2.5 25 2.5Z" fill="#45485C"/>
<path fill-rule="evenodd" clip-rule="evenodd" d="M33.9461 21.1173C34.6566 21.7567 34.7142 22.851 34.0748 23.5615L26.2863 32.2154C25.9581 32.5801 25.4905 32.7883 24.9998 32.7883C24.5092 32.7883 24.0416 32.5801 23.7134 32.2154L15.9249 23.5615C15.2854 22.851 15.343 21.7567 16.0535 21.1173C16.764 20.4778 17.8584 20.5354 18.4978 21.2459L24.9998 28.4703L31.5018 21.2459C32.1413 20.5354 33.2356 20.4778 33.9461 21.1173Z" fill="#45485C"/>
</svg>
