<svg width="200" height="200" viewBox="0 0 200 200" fill="none" xmlns="http://www.w3.org/2000/svg">
<path fill-rule="evenodd" clip-rule="evenodd" d="M176.154 100C176.154 57.9414 142.059 23.8462 100 23.8461C57.9414 23.8461 23.8461 57.9414 23.8461 100C23.8461 142.059 57.9414 176.154 100 176.154C142.059 176.154 176.154 142.059 176.154 100ZM100 10C149.706 10 190 50.2944 190 100C190 149.706 149.706 190 100 190C50.2944 190 9.99999 149.706 10 100C10 50.2944 50.2944 9.99999 100 10Z" fill="#45485C"/>
<path fill-rule="evenodd" clip-rule="evenodd" d="M134.229 100.384C136.933 103.088 136.933 107.471 134.229 110.175L104.893 139.511C102.189 142.215 97.8055 142.215 95.1019 139.511L65.7653 110.175C63.0617 107.471 63.0617 103.088 65.7653 100.384C68.469 97.6805 72.8524 97.6805 75.556 100.384L99.9972 124.825L124.438 100.384C127.142 97.6805 131.525 97.6805 134.229 100.384Z" fill="#45485C"/>
<path fill-rule="evenodd" clip-rule="evenodd" d="M99.9988 58.4609C103.822 58.4609 106.922 61.5605 106.922 65.384L106.922 134.615C106.922 138.438 103.822 141.538 99.9988 141.538C96.1753 141.538 93.0757 138.438 93.0757 134.615L93.0757 65.384C93.0757 61.5605 96.1753 58.4609 99.9988 58.4609Z" fill="#45485C"/>
</svg>
