<svg width="200" height="200" viewBox="0 0 200 200" fill="none" xmlns="http://www.w3.org/2000/svg">
<path fill-rule="evenodd" clip-rule="evenodd" d="M100 23.8462C57.9414 23.8462 23.8461 57.9414 23.8461 100C23.8461 142.059 57.9414 176.154 100 176.154C142.059 176.154 176.154 142.059 176.154 100C176.154 57.9414 142.059 23.8462 100 23.8462ZM9.99998 100C9.99999 50.2944 50.2944 10 100 10C149.706 10 190 50.2944 190 100C190 149.706 149.706 190 100 190C50.2943 190 9.99998 149.706 9.99998 100Z" fill="#45485C"/>
<path fill-rule="evenodd" clip-rule="evenodd" d="M100.384 65.7709C103.088 63.0673 107.471 63.0673 110.175 65.7709L139.511 95.1074C142.215 97.8111 142.215 102.195 139.511 104.898L110.175 134.235C107.471 136.938 103.088 136.938 100.384 134.235C97.6805 131.531 97.6805 127.148 100.384 124.444L124.825 100.003L100.384 75.5616C97.6805 72.858 97.6805 68.4745 100.384 65.7709Z" fill="#45485C"/>
<path fill-rule="evenodd" clip-rule="evenodd" d="M58.4609 100.001C58.4609 96.1777 61.5605 93.0781 65.384 93.0781L134.615 93.0781C138.438 93.0781 141.538 96.1777 141.538 100.001C141.538 103.825 138.438 106.924 134.615 106.924L65.384 106.924C61.5605 106.924 58.4609 103.825 58.4609 100.001Z" fill="#45485C"/>
</svg>
