<svg width="50" height="50" viewBox="0 0 50 50" fill="none" xmlns="http://www.w3.org/2000/svg">
<path fill-rule="evenodd" clip-rule="evenodd" d="M5.96154 25C5.96154 35.5147 14.4853 44.0385 25 44.0385C35.5147 44.0385 44.0385 35.5147 44.0385 25C44.0385 14.4853 35.5147 5.96154 25 5.96154C14.4853 5.96154 5.96154 14.4853 5.96154 25ZM25 47.5C12.5736 47.5 2.5 37.4264 2.5 25C2.5 12.5736 12.5736 2.5 25 2.5C37.4264 2.5 47.5 12.5736 47.5 25C47.5 37.4264 37.4264 47.5 25 47.5Z" fill="#45485C"/>
<path fill-rule="evenodd" clip-rule="evenodd" d="M16.4427 24.9039C15.7668 24.228 15.7668 23.1321 16.4427 22.4562L23.7768 15.1221C24.4527 14.4462 25.5486 14.4462 26.2245 15.1221L33.5586 22.4562C34.2345 23.1321 34.2345 24.228 33.5586 24.9039C32.8827 25.5798 31.7868 25.5798 31.1109 24.9039L25.0006 18.7936L18.8903 24.9039C18.2144 25.5798 17.1186 25.5798 16.4427 24.9039Z" fill="#45485C"/>
<path fill-rule="evenodd" clip-rule="evenodd" d="M25.0002 35.3847C24.0443 35.3847 23.2694 34.6098 23.2694 33.6539V16.3462C23.2694 15.3904 24.0443 14.6155 25.0002 14.6155C25.9561 14.6155 26.7309 15.3904 26.7309 16.3462L26.7309 33.6539C26.7309 34.6098 25.9561 35.3847 25.0002 35.3847Z" fill="#45485C"/>
</svg>
