<svg width="50" height="50" viewBox="0 0 50 50" fill="none" xmlns="http://www.w3.org/2000/svg">
<g clip-path="url(#clip0_6_296)">
<path fill-rule="evenodd" clip-rule="evenodd" d="M25 44.0385C35.5147 44.0385 44.0385 35.5147 44.0385 25C44.0385 14.4853 35.5147 5.96154 25 5.96154C14.4853 5.96154 5.96154 14.4853 5.96154 25C5.96154 35.5147 14.4853 44.0385 25 44.0385ZM47.5 25C47.5 37.4264 37.4264 47.5 25 47.5C12.5736 47.5 2.5 37.4264 2.5 25C2.5 12.5736 12.5736 2.5 25 2.5C37.4264 2.5 47.5 12.5736 47.5 25Z" fill="#45485C"/>
<path fill-rule="evenodd" clip-rule="evenodd" d="M24.9039 33.5573C24.228 34.2332 23.1322 34.2332 22.4562 33.5573L15.1221 26.2232C14.4462 25.5473 14.4462 24.4514 15.1221 23.7755L22.4562 16.4414C23.1322 15.7655 24.228 15.7655 24.9039 16.4414C25.5798 17.1173 25.5798 18.2132 24.9039 18.8891L18.7936 24.9994L24.9039 31.1097C25.5798 31.7856 25.5798 32.8814 24.9039 33.5573Z" fill="#45485C"/>
<path fill-rule="evenodd" clip-rule="evenodd" d="M35.3847 24.9998C35.3847 25.9557 34.6098 26.7306 33.654 26.7306H16.3463C15.3904 26.7306 14.6155 25.9557 14.6155 24.9998C14.6155 24.0439 15.3904 23.269 16.3463 23.269L33.654 23.269C34.6098 23.269 35.3847 24.0439 35.3847 24.9998Z" fill="#45485C"/>
</g>
<defs>
<clipPath id="clip0_6_296">
<rect width="50" height="50" fill="white"/>
</clipPath>
</defs>
</svg>
