<svg width="50" height="50" viewBox="0 0 50 50" fill="none" xmlns="http://www.w3.org/2000/svg">
<path fill-rule="evenodd" clip-rule="evenodd" d="M5.96154 25C5.96154 35.5147 14.4853 44.0385 25 44.0385C35.5147 44.0385 44.0385 35.5147 44.0385 25C44.0385 14.4853 35.5147 5.96154 25 5.96154C14.4853 5.96154 5.96154 14.4853 5.96154 25ZM25 47.5C12.5736 47.5 2.5 37.4264 2.5 25C2.5 12.5736 12.5736 2.5 25 2.5C37.4264 2.5 47.5 12.5736 47.5 25C47.5 37.4264 37.4264 47.5 25 47.5Z" fill="#45485C"/>
<path fill-rule="evenodd" clip-rule="evenodd" d="M16.0539 28.8827C15.3434 28.2433 15.2858 27.149 15.9252 26.4385L23.7137 17.7846C24.0419 17.4199 24.5095 17.2117 25.0002 17.2117C25.4908 17.2117 25.9584 17.4199 26.2866 17.7846L34.0751 26.4385C34.7146 27.149 34.657 28.2433 33.9465 28.8827C33.236 29.5222 32.1416 29.4646 31.5022 28.7541L25.0002 21.5297L18.4982 28.7541C17.8587 29.4646 16.7644 29.5222 16.0539 28.8827Z" fill="#45485C"/>
</svg>
