<svg width="200" height="200" viewBox="0 0 200 200" fill="none" xmlns="http://www.w3.org/2000/svg">
<path fill-rule="evenodd" clip-rule="evenodd" d="M100 176.154C142.059 176.154 176.154 142.059 176.154 100C176.154 57.9414 142.059 23.8461 100 23.8461C57.9414 23.8461 23.8462 57.9414 23.8462 100C23.8462 142.059 57.9414 176.154 100 176.154ZM190 100C190 149.706 149.706 190 100 190C50.2944 190 10 149.706 10 100C10 50.2943 50.2944 9.99998 100 9.99999C149.706 9.99999 190 50.2944 190 100Z" fill="#45485C"/>
<path fill-rule="evenodd" clip-rule="evenodd" d="M115.531 135.784C112.974 138.626 108.596 138.857 105.754 136.299L71.1388 105.145C69.68 103.832 68.847 101.962 68.847 99.9992C68.847 98.0366 69.68 96.1662 71.1388 94.8533L105.754 63.6995C108.596 61.1417 112.974 61.3721 115.531 64.2141C118.089 67.056 117.859 71.4334 115.017 73.9912L86.119 99.9992L115.017 126.007C117.859 128.565 118.089 132.942 115.531 135.784Z" fill="#45485C"/>
</svg>
