<svg width="50" height="50" viewBox="0 0 50 50" fill="none" xmlns="http://www.w3.org/2000/svg">
<path fill-rule="evenodd" clip-rule="evenodd" d="M25 5.96154C14.4853 5.96154 5.96154 14.4853 5.96154 25C5.96154 35.5147 14.4853 44.0385 25 44.0385C35.5147 44.0385 44.0385 35.5147 44.0385 25C44.0385 14.4853 35.5147 5.96154 25 5.96154ZM2.5 25C2.5 12.5736 12.5736 2.5 25 2.5C37.4264 2.5 47.5 12.5736 47.5 25C47.5 37.4264 37.4264 47.5 25 47.5C12.5736 47.5 2.5 37.4264 2.5 25Z" fill="#45485C"/>
<path fill-rule="evenodd" clip-rule="evenodd" d="M21.1173 16.0539C21.7567 15.3434 22.851 15.2858 23.5615 15.9252L32.2154 23.7137C32.5801 24.0419 32.7883 24.5095 32.7883 25.0002C32.7883 25.4908 32.5801 25.9584 32.2154 26.2866L23.5615 34.0751C22.851 34.7146 21.7567 34.657 21.1173 33.9465C20.4778 33.236 20.5354 32.1416 21.2459 31.5022L28.4703 25.0002L21.2459 18.4982C20.5354 17.8587 20.4778 16.7644 21.1173 16.0539Z" fill="#45485C"/>
</svg>
