<svg width="50" height="50" viewBox="0 0 50 50" fill="none" xmlns="http://www.w3.org/2000/svg">
<path fill-rule="evenodd" clip-rule="evenodd" d="M25 44.0385C35.5147 44.0385 44.0385 35.5147 44.0385 25C44.0385 14.4853 35.5147 5.96154 25 5.96154C14.4853 5.96154 5.96154 14.4853 5.96154 25C5.96154 35.5147 14.4853 44.0385 25 44.0385ZM47.5 25C47.5 37.4264 37.4264 47.5 25 47.5C12.5736 47.5 2.5 37.4264 2.5 25C2.5 12.5736 12.5736 2.5 25 2.5C37.4264 2.5 47.5 12.5736 47.5 25Z" fill="#45485C"/>
<path fill-rule="evenodd" clip-rule="evenodd" d="M28.8828 33.9461C28.2433 34.6566 27.149 34.7142 26.4385 34.0747L17.7846 26.2863C17.4199 25.958 17.2117 25.4904 17.2117 24.9998C17.2117 24.5092 17.4199 24.0416 17.7846 23.7133L26.4385 15.9249C27.149 15.2854 28.2433 15.343 28.8828 16.0535C29.5222 16.764 29.4646 17.8584 28.7541 18.4978L21.5297 24.9998L28.7541 31.5018C29.4646 32.1412 29.5222 33.2356 28.8828 33.9461Z" fill="#45485C"/>
</svg>
