<svg width="200" height="200" viewBox="0 0 200 200" fill="none" xmlns="http://www.w3.org/2000/svg">
<path fill-rule="evenodd" clip-rule="evenodd" d="M23.8461 100C23.8462 142.059 57.9414 176.154 100 176.154C142.059 176.154 176.154 142.059 176.154 100C176.154 57.9414 142.059 23.8461 100 23.8461C57.9414 23.8461 23.8461 57.9414 23.8461 100ZM100 190C50.2944 190 10 149.706 10 100C9.99999 50.2944 50.2944 10 100 10C149.706 9.99999 190 50.2944 190 100C190 149.706 149.706 190 100 190Z" fill="#45485C"/>
<path fill-rule="evenodd" clip-rule="evenodd" d="M65.7709 99.6158C63.0673 96.9122 63.0673 92.5288 65.7709 89.8251L95.1074 60.4886C97.8111 57.785 102.195 57.785 104.898 60.4886L134.235 89.8251C136.938 92.5288 136.938 96.9122 134.235 99.6158C131.531 102.319 127.148 102.319 124.444 99.6158L100.003 75.1747L75.5616 99.6158C72.858 102.319 68.4745 102.319 65.7709 99.6158Z" fill="#45485C"/>
<path fill-rule="evenodd" clip-rule="evenodd" d="M100.001 141.539C96.1777 141.539 93.0781 138.439 93.0781 134.616L93.0781 65.3852C93.0781 61.5617 96.1777 58.4621 100.001 58.4621C103.825 58.4621 106.924 61.5617 106.924 65.3852L106.924 134.616C106.924 138.439 103.825 141.539 100.001 141.539Z" fill="#45485C"/>
</svg>
