<svg width="200" height="200" viewBox="0 0 200 200" fill="none" xmlns="http://www.w3.org/2000/svg">
<path fill-rule="evenodd" clip-rule="evenodd" d="M23.8462 100C23.8462 142.059 57.9414 176.154 100 176.154C142.059 176.154 176.154 142.059 176.154 100C176.154 57.9414 142.059 23.8461 100 23.8461C57.9414 23.8461 23.8461 57.9414 23.8462 100ZM100 190C50.2944 190 10 149.706 10 100C9.99999 50.2944 50.2944 9.99999 100 9.99999C149.706 9.99999 190 50.2944 190 100C190 149.706 149.706 190 100 190Z" fill="#45485C"/>
<path fill-rule="evenodd" clip-rule="evenodd" d="M64.2157 115.531C61.3737 112.974 61.1433 108.596 63.7011 105.754L94.8549 71.1388C96.1678 69.68 98.0382 68.847 100.001 68.847C101.963 68.847 103.834 69.68 105.147 71.1388L136.301 105.754C138.858 108.596 138.628 112.974 135.786 115.531C132.944 118.089 128.567 117.859 126.009 115.017L100.001 86.119L73.9928 115.017C71.4351 117.859 67.0577 118.089 64.2157 115.531Z" fill="#45485C"/>
</svg>
