<svg width="200" height="200" viewBox="0 0 200 200" fill="none" xmlns="http://www.w3.org/2000/svg">
<path fill-rule="evenodd" clip-rule="evenodd" d="M100 176.154C142.059 176.154 176.154 142.059 176.154 100C176.154 57.9414 142.059 23.8462 100 23.8462C57.9414 23.8462 23.8461 57.9414 23.8461 100C23.8461 142.059 57.9414 176.154 100 176.154ZM190 100C190 149.706 149.706 190 100 190C50.2944 190 10 149.706 9.99999 100C9.99999 50.2944 50.2943 10 100 10C149.706 10 190 50.2944 190 100Z" fill="#45485C"/>
<path fill-rule="evenodd" clip-rule="evenodd" d="M99.6158 134.229C96.9122 136.933 92.5288 136.933 89.8251 134.229L60.4886 104.893C57.785 102.189 57.785 97.8055 60.4886 95.1019L89.8251 65.7653C92.5287 63.0617 96.9122 63.0617 99.6158 65.7653C102.319 68.469 102.319 72.8524 99.6158 75.556L75.1747 99.9972L99.6158 124.438C102.319 127.142 102.319 131.525 99.6158 134.229Z" fill="#45485C"/>
<path fill-rule="evenodd" clip-rule="evenodd" d="M141.539 99.9988C141.539 103.822 138.439 106.922 134.616 106.922L65.3852 106.922C61.5617 106.922 58.4621 103.822 58.4621 99.9988C58.4621 96.1753 61.5617 93.0757 65.3852 93.0757L134.616 93.0757C138.439 93.0757 141.539 96.1753 141.539 99.9988Z" fill="#45485C"/>
</svg>
