<svg width="50" height="50" viewBox="0 0 50 50" fill="none" xmlns="http://www.w3.org/2000/svg">
<path fill-rule="evenodd" clip-rule="evenodd" d="M44.0385 25C44.0385 14.4853 35.5147 5.96154 25 5.96154C14.4853 5.96154 5.96154 14.4853 5.96154 25C5.96154 35.5147 14.4853 44.0385 25 44.0385C35.5147 44.0385 44.0385 35.5147 44.0385 25ZM25 2.5C37.4264 2.5 47.5 12.5736 47.5 25C47.5 37.4264 37.4264 47.5 25 47.5C12.5736 47.5 2.5 37.4264 2.5 25C2.5 12.5736 12.5736 2.5 25 2.5Z" fill="#45485C"/>
<path fill-rule="evenodd" clip-rule="evenodd" d="M33.5573 25.0961C34.2332 25.772 34.2332 26.8679 33.5573 27.5438L26.2232 34.8779C25.5473 35.5538 24.4514 35.5538 23.7755 34.8779L16.4414 27.5438C15.7655 26.8679 15.7655 25.772 16.4414 25.0961C17.1173 24.4202 18.2132 24.4202 18.8891 25.0961L24.9994 31.2064L31.1097 25.0961C31.7856 24.4202 32.8814 24.4202 33.5573 25.0961Z" fill="#45485C"/>
<path fill-rule="evenodd" clip-rule="evenodd" d="M24.9998 14.6153C25.9556 14.6153 26.7305 15.3902 26.7305 16.3461V33.6538C26.7305 34.6096 25.9556 35.3845 24.9998 35.3845C24.0439 35.3845 23.269 34.6096 23.269 33.6538L23.269 16.3461C23.269 15.3902 24.0439 14.6153 24.9998 14.6153Z" fill="#45485C"/>
</svg>
