<svg width="50" height="50" viewBox="0 0 50 50" fill="none" xmlns="http://www.w3.org/2000/svg">
<path fill-rule="evenodd" clip-rule="evenodd" d="M25 5.96154C14.4854 5.96154 5.96154 14.4853 5.96154 25C5.96154 35.5146 14.4853 44.0385 25 44.0385C35.5146 44.0385 44.0385 35.5147 44.0385 25C44.0385 14.4854 35.5147 5.96154 25 5.96154ZM2.5 25C2.5 12.5736 12.5736 2.5 25 2.5C37.4264 2.5 47.5 12.5736 47.5 25C47.5 37.4264 37.4264 47.5 25 47.5C12.5736 47.5 2.5 37.4264 2.5 25Z" fill="#45485C"/>
<path fill-rule="evenodd" clip-rule="evenodd" d="M25.0961 16.4427C25.772 15.7668 26.8678 15.7668 27.5438 16.4427L34.8779 23.7768C35.5538 24.4527 35.5538 25.5486 34.8779 26.2245L27.5438 33.5586C26.8678 34.2345 25.772 34.2345 25.0961 33.5586C24.4202 32.8827 24.4202 31.7868 25.0961 31.1109L31.2064 25.0006L25.0961 18.8903C24.4202 18.2144 24.4202 17.1186 25.0961 16.4427Z" fill="#45485C"/>
<path fill-rule="evenodd" clip-rule="evenodd" d="M14.6153 25.0002C14.6153 24.0443 15.3902 23.2694 16.346 23.2694L33.6537 23.2694C34.6096 23.2694 35.3845 24.0443 35.3845 25.0002C35.3845 25.9561 34.6096 26.731 33.6537 26.731L16.346 26.731C15.3902 26.731 14.6153 25.9561 14.6153 25.0002Z" fill="#45485C"/>
</svg>
