<svg width="200" height="200" viewBox="0 0 200 200" fill="none" xmlns="http://www.w3.org/2000/svg">
<path fill-rule="evenodd" clip-rule="evenodd" d="M176.154 100C176.154 57.9414 142.059 23.8462 100 23.8462C57.9414 23.8461 23.8461 57.9414 23.8461 100C23.8461 142.059 57.9414 176.154 100 176.154C142.059 176.154 176.154 142.059 176.154 100ZM100 10C149.706 10 190 50.2944 190 100C190 149.706 149.706 190 100 190C50.2944 190 9.99999 149.706 9.99999 100C9.99999 50.2944 50.2944 9.99999 100 10Z" fill="#45485C"/>
<path fill-rule="evenodd" clip-rule="evenodd" d="M135.784 84.4687C138.626 87.0265 138.857 91.4038 136.299 94.2458L105.145 128.861C103.832 130.32 101.962 131.153 99.9992 131.153C98.0366 131.153 96.1662 130.32 94.8533 128.861L63.6995 94.2458C61.1417 91.4038 61.3721 87.0264 64.2141 84.4687C67.056 81.9109 71.4334 82.1413 73.9912 84.9832L99.9992 113.881L126.007 84.9832C128.565 82.1413 132.942 81.9109 135.784 84.4687Z" fill="#45485C"/>
</svg>
