<svg width="200" height="200" viewBox="0 0 200 200" fill="none" xmlns="http://www.w3.org/2000/svg">
<path fill-rule="evenodd" clip-rule="evenodd" d="M100 23.8462C57.9414 23.8462 23.8462 57.9414 23.8462 100C23.8462 142.059 57.9414 176.154 100 176.154C142.059 176.154 176.154 142.059 176.154 100C176.154 57.9414 142.059 23.8462 100 23.8462ZM10 100C10 50.2944 50.2944 10 100 10C149.706 10 190 50.2944 190 100C190 149.706 149.706 190 100 190C50.2944 190 10 149.706 10 100Z" fill="#45485C"/>
<path fill-rule="evenodd" clip-rule="evenodd" d="M84.4687 64.2157C87.0265 61.3737 91.4038 61.1433 94.2458 63.7011L128.861 94.8549C130.32 96.1678 131.153 98.0382 131.153 100.001C131.153 101.963 130.32 103.834 128.861 105.147L94.2458 136.301C91.4038 138.858 87.0265 138.628 84.4687 135.786C81.9109 132.944 82.1413 128.567 84.9832 126.009L113.881 100.001L84.9832 73.9928C82.1413 71.4351 81.9109 67.0577 84.4687 64.2157Z" fill="#45485C"/>
</svg>
