<svg width="200" height="200" viewBox="0 0 200 200" fill="none" xmlns="http://www.w3.org/2000/svg">
<path fill-rule="evenodd" clip-rule="evenodd" d="M36.0358 53.3796C25.5535 58.0967 22 63.3759 22 67C22 70.6241 25.5535 75.9033 36.0358 80.6204C45.9549 85.0839 60.079 88 76 88C91.921 88 106.045 85.0839 115.964 80.6204C126.446 75.9033 130 70.6241 130 67C130 63.3759 126.446 58.0967 115.964 53.3796C106.045 48.9161 91.921 46 76 46C60.079 46 45.9549 48.9161 36.0358 53.3796ZM31.1114 42.4366C42.9081 37.1281 58.7839 34 76 34C93.2161 34 109.092 37.1281 120.889 42.4366C132.122 47.4916 142 55.7124 142 67C142 78.2876 132.122 86.5084 120.889 91.5634C109.092 96.8719 93.2161 100 76 100C58.7839 100 42.9081 96.8719 31.1114 91.5634C19.878 86.5084 10 78.2876 10 67C10 55.7124 19.878 47.4916 31.1114 42.4366Z" fill="#45485C"/>
<path fill-rule="evenodd" clip-rule="evenodd" d="M16 61C19.3137 61 22 63.6863 22 67V97C22 100.633 25.5533 105.911 36.0305 110.625C45.9473 115.087 60.0713 118 76 118C91.9287 118 106.053 115.087 115.969 110.625C126.447 105.911 130 100.633 130 97V67C130 63.6863 132.686 61 136 61C139.314 61 142 63.6863 142 67V97C142 108.292 132.128 116.514 120.893 121.569C109.097 126.876 93.2213 130 76 130C58.7787 130 42.9027 126.876 31.107 121.569C19.8717 116.514 10 108.292 10 97V67C10 63.6863 12.6863 61 16 61Z" fill="#45485C"/>
<path fill-rule="evenodd" clip-rule="evenodd" d="M52 85.75C55.3137 85.75 58 88.4363 58 91.75V121.75C58 125.064 55.3137 127.75 52 127.75C48.6863 127.75 46 125.064 46 121.75V91.75C46 88.4363 48.6863 85.75 52 85.75Z" fill="#45485C"/>
<path fill-rule="evenodd" clip-rule="evenodd" d="M130.025 75.9712C130.332 72.6718 133.256 70.2463 136.555 70.5536C150.804 71.8809 163.649 75.3959 173.133 80.5577C182.284 85.5386 189.999 93.0783 189.999 103.003C189.999 114.295 180.127 122.516 168.892 127.571C157.096 132.878 141.22 136.003 123.999 136.003C108.696 136.003 94.4685 133.511 83.2714 129.322C80.1677 128.161 78.593 124.704 79.7541 121.6C80.9151 118.497 84.3724 116.922 87.476 118.083C97.1289 121.694 109.902 124.003 123.999 124.003C139.927 124.003 154.051 121.09 163.968 116.628C174.445 111.914 177.999 106.635 177.999 103.003C177.999 99.8772 175.401 95.4544 167.396 91.0978C159.724 86.9221 148.568 83.7246 135.442 82.5019C132.143 82.1945 129.717 79.2707 130.025 75.9712Z" fill="#45485C"/>
<path fill-rule="evenodd" clip-rule="evenodd" d="M184 97C187.314 97 190 99.6863 190 103V133C190 144.292 180.128 152.514 168.893 157.569C157.097 162.876 141.221 166 124 166C106.779 166 90.9027 162.876 79.107 157.569C67.8717 152.514 58 144.292 58 133V123.475C58 120.161 60.6863 117.475 64 117.475C67.3137 117.475 70 120.161 70 123.475V133C70 136.633 73.5533 141.911 84.0305 146.625C93.9473 151.087 108.071 154 124 154C139.929 154 154.053 151.087 163.969 146.625C174.447 141.911 178 136.633 178 133V103C178 99.6863 180.686 97 184 97Z" fill="#45485C"/>
<path fill-rule="evenodd" clip-rule="evenodd" d="M148 121.75C151.314 121.75 154 124.436 154 127.75V157.75C154 161.064 151.314 163.75 148 163.75C144.686 163.75 142 161.064 142 157.75V127.75C142 124.436 144.686 121.75 148 121.75Z" fill="#45485C"/>
<path fill-rule="evenodd" clip-rule="evenodd" d="M100 85.75C103.314 85.75 106 88.4363 106 91.75V157.75C106 161.064 103.314 163.75 100 163.75C96.6863 163.75 94 161.064 94 157.75V91.75C94 88.4363 96.6863 85.75 100 85.75Z" fill="#45485C"/>
</svg>
