<svg width="200" height="200" viewBox="0 0 200 200" fill="none" xmlns="http://www.w3.org/2000/svg">
<path fill-rule="evenodd" clip-rule="evenodd" d="M51.0971 44.7441C43.0472 58.5439 37.8462 78.0644 37.8462 100C37.8462 121.936 43.0472 141.456 51.0971 155.256C59.2462 169.226 69.4869 176.154 79.3846 176.154C89.2823 176.154 99.523 169.226 107.672 155.256C115.722 141.456 120.923 121.936 120.923 100C120.923 78.0644 115.722 58.5439 107.672 44.7441C99.523 30.7743 89.2823 23.8462 79.3846 23.8462C69.4869 23.8462 59.2462 30.7743 51.0971 44.7441ZM39.1371 37.7674C48.5277 21.6693 62.5178 10 79.3846 10C96.2515 10 110.242 21.6693 119.632 37.7674C129.122 54.0355 134.769 76.0535 134.769 100C134.769 123.946 129.122 145.964 119.632 162.233C110.242 178.331 96.2515 190 79.3846 190C62.5178 190 48.5277 178.331 39.1371 162.233C29.6474 145.964 24 123.946 24 100C24 76.0535 29.6474 54.0355 39.1371 37.7674Z" fill="#45485C"/>
<path fill-rule="evenodd" clip-rule="evenodd" d="M72.4619 16.9231C72.4619 13.0996 75.5615 10 79.385 10H120.923C137.78 10 151.77 21.6762 161.162 37.7731C170.654 54.0423 176.308 76.0601 176.308 100C176.308 123.94 170.654 145.958 161.162 162.227C151.77 178.324 137.78 190 120.923 190H79.385C75.5615 190 72.4619 186.9 72.4619 183.077C72.4619 179.253 75.5615 176.154 79.385 176.154H120.923C130.807 176.154 141.048 169.224 149.202 155.249C157.256 141.446 162.462 121.925 162.462 100C162.462 78.0745 157.256 58.5538 149.202 44.7509C141.048 30.7757 130.807 23.8462 120.923 23.8462H79.385C75.5615 23.8462 72.4619 20.7466 72.4619 16.9231Z" fill="#45485C"/>
<path fill-rule="evenodd" clip-rule="evenodd" d="M108.548 44.6164C108.548 40.7929 111.647 37.6934 115.471 37.6934H157.009C160.833 37.6934 163.932 40.7929 163.932 44.6164C163.932 48.4399 160.833 51.5395 157.009 51.5395H115.471C111.647 51.5395 108.548 48.4399 108.548 44.6164Z" fill="#45485C"/>
<path fill-rule="evenodd" clip-rule="evenodd" d="M120.923 100C120.923 96.1767 124.022 93.0771 127.846 93.0771H169.384C173.208 93.0771 176.307 96.1767 176.307 100C176.307 103.824 173.208 106.923 169.384 106.923H127.846C124.022 106.923 120.923 103.824 120.923 100Z" fill="#45485C"/>
<path fill-rule="evenodd" clip-rule="evenodd" d="M108.548 155.385C108.548 151.561 111.647 148.462 115.471 148.462H157.009C160.833 148.462 163.932 151.561 163.932 155.385C163.932 159.209 160.833 162.308 157.009 162.308H115.471C111.647 162.308 108.548 159.209 108.548 155.385Z" fill="#45485C"/>
</svg>
