<svg width="50" height="50" viewBox="0 0 50 50" fill="none" xmlns="http://www.w3.org/2000/svg">
<path fill-rule="evenodd" clip-rule="evenodd" d="M25 5.96154C14.4853 5.96154 5.96154 14.4853 5.96154 25C5.96154 35.5147 14.4853 44.0385 25 44.0385C35.5147 44.0385 44.0385 35.5147 44.0385 25C44.0385 14.4853 35.5147 5.96154 25 5.96154ZM2.5 25C2.5 12.5736 12.5736 2.5 25 2.5C37.4264 2.5 47.5 12.5736 47.5 25C47.5 37.4264 37.4264 47.5 25 47.5C12.5736 47.5 2.5 37.4264 2.5 25Z" fill="#45485C"/>
<path fill-rule="evenodd" clip-rule="evenodd" d="M33.1469 16.8531C33.8228 17.529 33.8228 18.6248 33.1469 19.3008L19.3008 33.1469C18.6248 33.8228 17.529 33.8228 16.8531 33.1469C16.1772 32.471 16.1772 31.3751 16.8531 30.6992L30.6992 16.8531C31.3751 16.1772 32.471 16.1772 33.1469 16.8531Z" fill="#45485C"/>
<path fill-rule="evenodd" clip-rule="evenodd" d="M16.8531 16.8531C17.529 16.1772 18.6248 16.1772 19.3008 16.8531L33.1469 30.6992C33.8228 31.3751 33.8228 32.471 33.1469 33.1469C32.471 33.8228 31.3751 33.8228 30.6992 33.1469L16.8531 19.3008C16.1772 18.6248 16.1772 17.529 16.8531 16.8531Z" fill="#45485C"/>
</svg>
