<svg width="200" height="200" viewBox="0 0 200 200" fill="none" xmlns="http://www.w3.org/2000/svg">
<path fill-rule="evenodd" clip-rule="evenodd" d="M100 23.8462C57.9414 23.8462 23.8462 57.9414 23.8462 100C23.8462 142.059 57.9414 176.154 100 176.154C142.059 176.154 176.154 142.059 176.154 100C176.154 57.9414 142.059 23.8462 100 23.8462ZM10 100C10 50.2944 50.2944 10 100 10C149.706 10 190 50.2944 190 100C190 149.706 149.706 190 100 190C50.2944 190 10 149.706 10 100Z" fill="#45485C"/>
<path fill-rule="evenodd" clip-rule="evenodd" d="M132.588 67.4125C135.291 70.1161 135.291 74.4996 132.588 77.2032L77.2032 132.588C74.4996 135.291 70.1161 135.291 67.4125 132.588C64.7089 129.884 64.7089 125.501 67.4125 122.797L122.797 67.4125C125.501 64.7089 129.884 64.7089 132.588 67.4125Z" fill="#45485C"/>
<path fill-rule="evenodd" clip-rule="evenodd" d="M67.4125 67.4125C70.1161 64.7089 74.4996 64.7089 77.2032 67.4125L132.588 122.797C135.291 125.501 135.291 129.884 132.588 132.588C129.884 135.291 125.501 135.291 122.797 132.588L67.4125 77.2032C64.7089 74.4996 64.7089 70.1161 67.4125 67.4125Z" fill="#45485C"/>
</svg>
