<svg width="50" height="50" viewBox="0 0 50 50" fill="none" xmlns="http://www.w3.org/2000/svg">
<path d="M46.875 40.625H43.75V22.5683C43.7501 22.1358 43.6604 21.708 43.4865 21.312C43.3127 20.9159 43.0586 20.5603 42.7402 20.2676L27.1152 5.52536C27.1076 5.5187 27.1004 5.51152 27.0938 5.50388C26.5185 4.9807 25.7688 4.6908 24.9912 4.6908C24.2136 4.6908 23.4639 4.9807 22.8887 5.50388L22.8672 5.52536L7.25977 20.2676C6.9414 20.5603 6.68727 20.9159 6.51346 21.312C6.33965 21.708 6.24993 22.1358 6.25 22.5683V40.625H3.125C2.7106 40.625 2.31317 40.7896 2.02015 41.0826C1.72712 41.3756 1.5625 41.7731 1.5625 42.1875C1.5625 42.6019 1.72712 42.9993 2.02015 43.2923C2.31317 43.5854 2.7106 43.75 3.125 43.75H46.875C47.2894 43.75 47.6868 43.5854 47.9799 43.2923C48.2729 42.9993 48.4375 42.6019 48.4375 42.1875C48.4375 41.7731 48.2729 41.3756 47.9799 41.0826C47.6868 40.7896 47.2894 40.625 46.875 40.625ZM9.375 22.5683L9.39648 22.5488L25 7.81247L40.6055 22.5449L40.627 22.5644V40.625H31.25V31.25C31.25 30.4212 30.9208 29.6263 30.3347 29.0403C29.7487 28.4542 28.9538 28.125 28.125 28.125H21.875C21.0462 28.125 20.2513 28.4542 19.6653 29.0403C19.0792 29.6263 18.75 30.4212 18.75 31.25V40.625H9.375V22.5683ZM28.125 40.625H21.875V31.25H28.125V40.625Z" fill="#45485C"/>
</svg>
