<svg width="50" height="50" viewBox="0 0 50 50" fill="none" xmlns="http://www.w3.org/2000/svg">
<path d="M46.875 40.625H43.75V22.5683C43.7501 22.1358 43.6604 21.708 43.4865 21.312C43.3127 20.916 43.0586 20.5603 42.7402 20.2676L27.1152 5.52536C27.1076 5.5187 27.1004 5.51152 27.0938 5.50388C26.5185 4.9807 25.7688 4.6908 24.9912 4.6908C24.2136 4.6908 23.4639 4.9807 22.8887 5.50388L22.8672 5.52536L7.25977 20.2676C6.9414 20.5603 6.68727 20.916 6.51346 21.312C6.33965 21.708 6.24993 22.1358 6.25 22.5683V40.625H3.125C2.7106 40.625 2.31317 40.7896 2.02015 41.0826C1.72712 41.3756 1.5625 41.7731 1.5625 42.1875C1.5625 42.6019 1.72712 42.9993 2.02015 43.2923C2.31317 43.5854 2.7106 43.75 3.125 43.75H46.875C47.2894 43.75 47.6868 43.5854 47.9799 43.2923C48.2729 42.9993 48.4375 42.6019 48.4375 42.1875C48.4375 41.7731 48.2729 41.3756 47.9799 41.0826C47.6868 40.7896 47.2894 40.625 46.875 40.625ZM29.6875 40.625H20.3125V31.25C20.3125 30.8356 20.4771 30.4381 20.7701 30.1451C21.0632 29.8521 21.4606 29.6875 21.875 29.6875H28.125C28.5394 29.6875 28.9368 29.8521 29.2299 30.1451C29.5229 30.4381 29.6875 30.8356 29.6875 31.25V40.625Z" fill="#45485C"/>
</svg>
