<svg width="50" height="50" viewBox="0 0 50 50" fill="none" xmlns="http://www.w3.org/2000/svg">
<path d="M43.75 9.375H6.25C5.8356 9.375 5.43817 9.53962 5.14515 9.83265C4.85212 10.1257 4.6875 10.5231 4.6875 10.9375V37.5C4.6875 38.3288 5.01674 39.1237 5.60279 39.7097C6.18884 40.2958 6.9837 40.625 7.8125 40.625H42.1875C43.0163 40.625 43.8112 40.2958 44.3972 39.7097C44.9833 39.1237 45.3125 38.3288 45.3125 37.5V10.9375C45.3125 10.5231 45.1479 10.1257 44.8549 9.83265C44.5618 9.53962 44.1644 9.375 43.75 9.375ZM25 26.0059L10.2676 12.5H39.7324L25 26.0059ZM19.2793 25L7.8125 35.5098V14.4902L19.2793 25ZM21.5918 27.1191L23.9355 29.2773C24.2238 29.542 24.6009 29.6888 24.9922 29.6888C25.3835 29.6888 25.7606 29.542 26.0488 29.2773L28.3926 27.1191L39.7207 37.5H10.2676L21.5918 27.1191ZM30.7207 25L42.1875 14.4883V35.5117L30.7207 25Z" fill="#45485C"/>
</svg>
