<svg width="200" height="200" viewBox="0 0 200 200" fill="none" xmlns="http://www.w3.org/2000/svg">
<path d="M172.178 28H27.8218C17.9604 28 10 35.9604 10 45.8218V50.5743V66.0198V154.535V154.653C10 159.287 11.7822 163.446 14.6337 166.535C17.8416 170.099 22.5941 172.475 27.8218 172.475H172.178C177.406 172.475 182.158 170.218 185.366 166.535C188.218 163.327 190 159.168 190 154.653V154.535V66.0198V50.5743V45.8218C190 35.9604 182.04 28 172.178 28ZM22.3564 75.0495L70.7129 110.218L22.3564 145.386V75.0495V75.0495ZM172.178 160H27.8218C26.7525 160 25.6832 159.644 24.8515 159.168L81.4059 118.059L88.4158 123.168C91.8614 125.663 95.901 126.97 99.9406 126.97C103.98 126.97 108.02 125.663 111.465 123.168L118.475 118.059L175.03 159.168C174.198 159.644 173.248 160 172.178 160ZM177.525 145.386L129.168 110.218L177.525 75.0495V145.386ZM118.475 102.614L107.901 110.337L104.218 112.95C101.723 114.851 98.2772 114.851 95.7822 112.95L92.099 110.337L81.5248 102.614L22.4752 59.7227V45.9406C22.4752 42.9703 24.8515 40.594 27.8218 40.594H172.178C175.149 40.594 177.525 42.9703 177.525 45.9406V59.7227L118.475 102.614Z" fill="#45485C"/>
</svg>
