<svg width="200" height="200" viewBox="0 0 200 200" fill="none" xmlns="http://www.w3.org/2000/svg">
<path fill-rule="evenodd" clip-rule="evenodd" d="M99.7141 61.4284C89.0629 61.4284 80.4284 70.0629 80.4284 80.7141C80.4284 91.3654 89.0629 99.9999 99.7141 99.9999C110.365 99.9999 119 91.3654 119 80.7141C119 70.0629 110.365 61.4284 99.7141 61.4284ZM67.5713 80.7141C67.5713 62.9621 81.9621 48.5713 99.7141 48.5713C117.466 48.5713 131.857 62.9621 131.857 80.7141C131.857 98.4662 117.466 112.857 99.7141 112.857C81.9621 112.857 67.5713 98.4662 67.5713 80.7141Z" fill="#45485C"/>
<path fill-rule="evenodd" clip-rule="evenodd" d="M99.7143 22.8571C84.3696 22.8571 69.6534 28.9528 58.8031 39.8031C47.9528 50.6534 41.8571 65.3696 41.8571 80.7143C41.8571 107.328 56.719 131.562 72.4225 149.621C80.1957 158.56 87.9854 165.767 93.8331 170.738C96.1457 172.704 98.1473 174.313 99.7143 175.536C101.281 174.313 103.283 172.704 105.595 170.738C111.443 165.767 119.233 158.56 127.006 149.621C142.71 131.562 157.571 107.328 157.571 80.7143C157.571 65.3696 151.476 50.6534 140.625 39.8031C129.775 28.9528 115.059 22.8571 99.7143 22.8571ZM99.7143 183.571C96.0277 188.838 96.0259 188.837 96.0239 188.835L96.0186 188.831L96.0035 188.821L95.956 188.787L95.7925 188.671C95.6536 188.572 95.4554 188.429 95.202 188.244C94.6951 187.874 93.9666 187.334 93.0483 186.632C91.2123 185.229 88.6136 183.176 85.5062 180.534C79.3004 175.259 71.0186 167.601 62.7204 158.058C46.281 139.152 29 111.957 29 80.7143C29 61.9597 36.4502 43.9732 49.7117 30.7117C62.9732 17.4502 80.9597 10 99.7143 10C118.469 10 136.455 17.4502 149.717 30.7117C162.978 43.9732 170.429 61.9597 170.429 80.7143C170.429 111.957 153.148 139.152 136.708 158.058C128.41 167.601 120.128 175.259 113.922 180.534C110.815 183.176 108.216 185.229 106.38 186.632C105.462 187.334 104.734 187.874 104.227 188.244C103.973 188.429 103.775 188.572 103.636 188.671L103.473 188.787L103.425 188.821L103.41 188.831L103.405 188.835C103.403 188.837 103.401 188.838 99.7143 183.571ZM99.7143 183.571L103.401 188.838C101.187 190.387 98.2412 190.387 96.0277 188.838L99.7143 183.571Z" fill="#45485C"/>
</svg>
