<svg width="50" height="50" viewBox="0 0 50 50" fill="none" xmlns="http://www.w3.org/2000/svg">
<path d="M25 12.5C23.4548 12.5 21.9444 12.9582 20.6596 13.8166C19.3748 14.6751 18.3735 15.8952 17.7822 17.3228C17.1909 18.7503 17.0362 20.3212 17.3376 21.8366C17.6391 23.3521 18.3831 24.7442 19.4757 25.8368C20.5683 26.9294 21.9604 27.6734 23.4759 27.9749C24.9913 28.2763 26.5622 28.1216 27.9897 27.5303C29.4173 26.939 30.6374 25.9377 31.4959 24.6529C32.3543 23.3681 32.8125 21.8577 32.8125 20.3125C32.8125 18.2405 31.9894 16.2534 30.5243 14.7882C29.0591 13.3231 27.072 12.5 25 12.5ZM25 25C24.0729 25 23.1666 24.7251 22.3958 24.21C21.6249 23.6949 21.0241 22.9629 20.6693 22.1063C20.3145 21.2498 20.2217 20.3073 20.4026 19.398C20.5834 18.4887 21.0299 17.6535 21.6854 16.9979C22.341 16.3424 23.1762 15.8959 24.0855 15.7151C24.9948 15.5342 25.9373 15.627 26.7938 15.9818C27.6504 16.3366 28.3824 16.9374 28.8975 17.7083C29.4126 18.4791 29.6875 19.3854 29.6875 20.3125C29.6875 21.5557 29.1936 22.748 28.3146 23.6271C27.4355 24.5061 26.2432 25 25 25ZM25 3.125C20.4432 3.13017 16.0745 4.94265 12.8523 8.16481C9.63015 11.387 7.81767 15.7557 7.8125 20.3125C7.8125 26.4453 10.6465 32.9453 16.0156 39.1113C18.4282 41.8976 21.1435 44.4065 24.1113 46.5918C24.374 46.7758 24.687 46.8746 25.0078 46.8746C25.3286 46.8746 25.6416 46.7758 25.9043 46.5918C28.8667 44.4056 31.5767 41.8967 33.9844 39.1113C39.3457 32.9453 42.1875 26.4453 42.1875 20.3125C42.1823 15.7557 40.3699 11.387 37.1477 8.16481C33.9255 4.94265 29.5568 3.13017 25 3.125ZM25 43.3594C21.7715 40.8203 10.9375 31.4941 10.9375 20.3125C10.9375 16.5829 12.4191 13.006 15.0563 10.3688C17.6935 7.73158 21.2704 6.25 25 6.25C28.7296 6.25 32.3065 7.73158 34.9437 10.3688C37.5809 13.006 39.0625 16.5829 39.0625 20.3125C39.0625 31.4902 28.2285 40.8203 25 43.3594Z" fill="#45485C"/>
</svg>
