<svg width="200" height="200" viewBox="0 0 200 200" fill="none" xmlns="http://www.w3.org/2000/svg">
<path fill-rule="evenodd" clip-rule="evenodd" d="M61.2857 22.8571C57.7353 22.8571 54.8571 25.7353 54.8571 29.2857V170.714C54.8571 174.265 57.7353 177.143 61.2857 177.143H138.429C141.979 177.143 144.857 174.265 144.857 170.714V29.2857C144.857 25.7353 141.979 22.8571 138.429 22.8571H61.2857ZM42 29.2857C42 18.6345 50.6345 10 61.2857 10H138.429C149.08 10 157.714 18.6345 157.714 29.2857V170.714C157.714 181.365 149.08 190 138.429 190H61.2857C50.6345 190 42 181.365 42 170.714V29.2857Z" fill="#45485C"/>
<path fill-rule="evenodd" clip-rule="evenodd" d="M42 42.1424C42 38.592 44.8782 35.7139 48.4286 35.7139H151.286C154.836 35.7139 157.714 38.592 157.714 42.1424C157.714 45.6928 154.836 48.571 151.286 48.571H48.4286C44.8782 48.571 42 45.6928 42 42.1424Z" fill="#45485C"/>
<path fill-rule="evenodd" clip-rule="evenodd" d="M42 157.857C42 154.307 44.8782 151.429 48.4286 151.429H151.286C154.836 151.429 157.714 154.307 157.714 157.857C157.714 161.408 154.836 164.286 151.286 164.286H48.4286C44.8782 164.286 42 161.408 42 157.857Z" fill="#45485C"/>
</svg>
