<svg width="200" height="200" viewBox="0 0 200 200" fill="none" xmlns="http://www.w3.org/2000/svg">
<path fill-rule="evenodd" clip-rule="evenodd" d="M100 23.8471C57.9414 23.8471 23.8462 57.9424 23.8462 100.001C23.8462 142.06 57.9414 176.155 100 176.155C142.059 176.155 176.154 142.06 176.154 100.001C176.154 57.9424 142.059 23.8471 100 23.8471ZM10 100.001C10 50.2953 50.2944 10.001 100 10.001C149.706 10.001 190 50.2953 190 100.001C190 149.707 149.706 190.001 100 190.001C50.2944 190.001 10 149.707 10 100.001Z" fill="#45485C"/>
<path fill-rule="evenodd" clip-rule="evenodd" d="M141.007 74.1081C143.709 76.8733 143.657 81.3052 140.892 84.0069L93.8109 130.007C91.0956 132.66 86.7606 132.665 84.039 130.019L64.1201 110.65C61.3484 107.955 61.2863 103.523 63.9814 100.752C66.6765 97.98 71.1082 97.9179 73.8799 100.613L88.9072 115.225L131.108 73.9931C133.873 71.2914 138.305 71.3428 141.007 74.1081Z" fill="#45485C"/>
</svg>
