<svg width="50" height="50" viewBox="0 0 50 50" fill="none" xmlns="http://www.w3.org/2000/svg">
<path fill-rule="evenodd" clip-rule="evenodd" d="M30.2318 4.75362C31.8874 3.2536 34.0563 2.44765 36.2896 2.50264C38.5229 2.55763 40.6496 3.46934 42.2293 5.04901C43.8089 6.62869 44.7207 8.75534 44.7756 10.9887C44.8306 13.222 44.0247 15.3909 42.5247 17.0464C42.5082 17.0646 42.4914 17.0824 42.4742 17.0998L20.8693 39.0093C20.8464 39.0326 20.8228 39.0551 20.7986 39.077C19.8053 39.9771 18.504 40.4606 17.164 40.4276C15.824 40.3946 14.548 39.8476 13.6002 38.8998C12.6524 37.952 12.1054 36.676 12.0724 35.336C12.0394 33.996 12.5229 32.6947 13.423 31.7014C13.4389 31.6838 13.4552 31.6665 13.4718 31.6496L31.5956 13.2213C32.2696 12.5359 33.3716 12.5267 34.057 13.2008C34.7424 13.8748 34.7516 14.9768 34.0775 15.6622L15.983 34.0608C15.6956 34.389 15.5417 34.8135 15.5525 35.2503C15.5635 35.697 15.7458 36.1223 16.0617 36.4383C16.3777 36.7542 16.803 36.9365 17.2497 36.9475C17.6828 36.9582 18.1038 36.807 18.4309 36.5242L39.9678 14.6836C40.8531 13.6936 41.3283 12.403 41.2956 11.0743C41.2626 9.73435 40.7155 8.45836 39.7677 7.51056C38.8199 6.56275 37.5439 6.01573 36.2039 5.98273C34.8791 5.95011 33.592 6.42244 32.6031 7.30296L11.0265 29.1838C9.39675 30.8135 8.48115 33.0238 8.48115 35.3286C8.48115 37.6334 9.39672 39.8438 11.0265 41.4735C12.6562 43.1033 14.8666 44.0189 17.1714 44.0189C19.4762 44.0189 21.6865 43.1033 23.3163 41.4735L41.1804 23.6529C41.861 22.974 42.9631 22.9754 43.642 23.6559C44.3209 24.3365 44.3195 25.4386 43.639 26.1175L25.7778 43.9351C23.4952 46.2177 20.3994 47.5 17.1714 47.5C13.9433 47.5 10.8475 46.2177 8.56491 43.9351C6.28234 41.6525 5 38.5567 5 35.3286C5 32.1027 6.28065 29.0088 8.56041 26.7267L30.1612 4.82135C30.1841 4.79812 30.2077 4.77553 30.2318 4.75362Z" fill="#45485C"/>
</svg>
