<svg width="200" height="200" viewBox="0 0 200 200" fill="none" xmlns="http://www.w3.org/2000/svg">
<path fill-rule="evenodd" clip-rule="evenodd" d="M120.927 19.0145C127.549 13.0144 136.225 9.79061 145.158 10.0106C154.092 10.2305 162.598 13.8774 168.917 20.1961C175.236 26.5148 178.883 35.0214 179.103 43.9547C179.323 52.8879 176.099 61.5637 170.099 68.1857C170.033 68.2583 169.965 68.3296 169.897 68.3994L83.4771 156.037C83.3855 156.13 83.2913 156.221 83.1946 156.308C79.2213 159.908 74.0159 161.843 68.6559 161.711C63.2959 161.579 58.192 159.39 54.4008 155.599C50.6095 151.808 48.4214 146.704 48.2895 141.344C48.1575 135.984 50.0918 130.779 53.6918 126.805C53.7556 126.735 53.8207 126.666 53.8873 126.598L126.382 52.8851C129.078 50.1436 133.487 50.1068 136.228 52.803C138.97 55.4992 139.006 59.9074 136.31 62.6489L63.9322 136.243C62.7826 137.556 62.1668 139.254 62.2098 141.001C62.2538 142.788 62.9832 144.489 64.2469 145.753C65.5107 147.017 67.212 147.746 68.9987 147.79C70.7312 147.833 72.4153 147.228 73.7234 146.097L159.871 58.7345C163.413 54.7744 165.313 49.6118 165.182 44.2974C165.05 38.9374 162.862 33.8335 159.071 30.0422C155.28 26.251 150.176 24.0629 144.816 23.9309C139.516 23.8005 134.368 25.6898 130.412 29.2118L44.1059 116.735C37.587 123.254 33.9246 132.095 33.9246 141.315C33.9246 150.534 37.5869 159.375 44.1058 165.894C50.6247 172.413 59.4663 176.075 68.6855 176.075C77.9046 176.075 86.7462 172.413 93.2651 165.894L164.722 94.6117C167.444 91.896 171.852 91.9014 174.568 94.6237C177.283 97.3459 177.278 101.754 174.556 104.47L103.111 175.74C93.981 184.871 81.5977 190 68.6855 190C55.7733 190 43.3899 184.871 34.2596 175.74C25.1293 166.61 20 154.227 20 141.315C20 128.411 25.1226 116.035 34.2417 106.907L120.645 19.2854C120.736 19.1925 120.831 19.1021 120.927 19.0145Z" fill="#45485C"/>
</svg>
