<svg width="200" height="200" viewBox="0 0 200 200" fill="none" xmlns="http://www.w3.org/2000/svg">
<path d="M143.643 106.135C143.643 109.798 146.674 112.83 150.337 112.83C153.621 112.83 156.653 109.798 156.779 105.882C156.779 71.0197 128.232 42.4727 93.3695 42.4727C89.7064 42.4727 86.6748 45.5042 86.6748 49.1673C86.6748 52.8304 89.7064 55.862 93.3695 55.862C121.159 55.862 143.643 78.3459 143.643 106.135Z" fill="#45485C"/>
<path d="M93.2436 9C89.5804 9 86.5488 12.0315 86.5488 15.6947C86.5488 19.3578 89.5804 22.3893 93.2436 22.3893C139.475 22.3893 176.99 59.9047 176.99 106.136C176.99 109.799 180.021 112.83 183.685 112.83C185.2 112.83 187.095 112.073 188.106 110.683C189.242 109.167 190 107.652 190 105.757C190 52.5785 146.927 9 93.2436 9Z" fill="#45485C"/>
<path d="M159.053 140.872L132.274 123.693L132.022 123.567C127.095 120.662 121.032 121.546 117.622 125.588L107.643 135.693C102.085 134.809 91.2221 131.651 80.1065 120.788C67.6014 108.535 65.454 97.0409 64.9488 93.6304L75.1802 83.1463C78.8433 79.3568 79.6013 73.2938 76.8223 68.8728L59.2646 42.2204L59.1383 42.0941C55.7278 37.0415 49.4121 35.3994 44.1069 38.052L16.6967 51.1887C12.0231 53.2098 9.3704 58.2623 10.1283 63.3149C11.7704 77.5884 16.9493 99.3145 32.2333 122.177C38.2964 131.146 45.37 139.735 53.5805 147.819C85.0327 178.766 117.243 187.861 138.716 190.008H139.474C144.022 190.135 147.937 187.861 150.211 184.071L150.464 183.819L163.474 155.777C166 150.346 164.232 144.156 159.053 140.872ZM138.59 176.366C119.643 174.219 91.0958 165.882 63.054 138.219C35.1386 110.557 26.2966 82.0094 23.8966 62.8097L48.7805 50.8098L64.4435 74.6832L54.7173 84.5357C53.2015 86.0515 51.3067 88.9567 51.3067 93.5041V93.883C51.6857 98.304 54.0857 114.093 70.5066 130.388C84.7801 144.535 99.3062 148.324 106.759 149.335L107.264 149.461H107.643C112.19 149.461 114.969 147.567 116.485 145.925L126.211 136.072L150.211 151.356L138.59 176.366Z" fill="#45485C"/>
</svg>
