<svg width="200" height="200" viewBox="0 0 200 200" fill="none" xmlns="http://www.w3.org/2000/svg">
<path d="M16.0869 178.583C14.5685 178.583 13.0501 177.999 11.8821 176.831C10.1302 175.079 9.54611 172.51 10.3637 170.291L29.8691 118.198C30.5699 116.33 32.0883 114.928 33.957 114.461L75.7709 102.781L33.957 91.1012C32.0883 90.5172 30.5699 89.2324 29.8691 87.3636L10.3637 35.2714C9.54611 32.9354 10.1302 30.3659 11.8821 28.7307C13.6341 27.0955 16.2036 26.5116 18.5396 27.4459L186.262 97.1746C188.598 98.109 190 100.328 190 102.781C190 105.234 188.482 107.453 186.262 108.387L18.4228 178.116C17.6052 178.467 16.7877 178.583 16.0869 178.583ZM40.2642 125.44L26.8323 161.414L167.925 102.781L26.7155 44.1481L40.1473 80.1221L100.065 96.8243C102.751 97.5251 104.503 99.9779 104.503 102.781C104.503 105.584 102.635 107.92 100.065 108.738L40.2642 125.44Z" fill="#45485C"/>
<path fill-rule="evenodd" clip-rule="evenodd" d="M9.61491 170.011L29.1203 117.918C29.9064 115.822 31.6182 114.225 33.7527 113.688L72.7977 102.781L33.7305 91.8689L33.7188 91.8652C31.6459 91.2174 29.9188 89.7739 29.1204 87.645L9.61188 35.5443L9.60902 35.5361C8.6929 32.9186 9.33914 30.0107 11.3367 28.1463C13.3017 26.3123 16.1964 25.6473 18.8371 26.7036L18.8471 26.7076L186.56 96.4323C186.561 96.433 186.563 96.4336 186.565 96.4342C189.218 97.4979 190.8 100.022 190.8 102.781C190.8 105.563 189.083 108.068 186.573 109.125L186.57 109.127L18.7384 178.852C18.737 178.852 18.7356 178.853 18.7342 178.854C17.8 179.253 16.8732 179.384 16.0873 179.384C14.3627 179.384 12.6391 178.72 11.3169 177.397C9.35382 175.434 8.68336 172.539 9.61343 170.014L9.61491 170.011ZM18.4232 178.117L186.263 108.388C188.482 107.453 190 105.234 190 102.781C190 100.329 188.599 98.1095 186.263 97.1751L18.54 27.4464C16.204 26.512 13.6345 27.096 11.8825 28.7312C10.1306 30.3663 9.54652 32.9359 10.3641 35.2718L29.8695 87.3641C30.5703 89.2328 32.0887 90.5176 33.9574 91.1016L75.7713 102.781L33.9574 114.461C32.0887 114.929 30.5703 116.33 29.8695 118.199L10.3641 170.291C9.54652 172.51 10.1306 175.08 11.8825 176.832C13.0505 178 14.5689 178.584 16.0873 178.584C16.7881 178.584 17.6057 178.467 18.4232 178.117ZM100.294 109.505L40.8717 126.101L28.2264 159.969L165.84 102.782L28.1093 45.5934L40.7548 79.4613L100.267 96.0506C100.27 96.0512 100.272 96.0518 100.274 96.0524C103.339 96.8552 105.304 99.6484 105.304 102.781C105.304 105.958 103.186 108.585 100.308 109.501L100.294 109.505ZM40.1478 80.1225L26.7159 44.1486L167.925 102.781L26.8328 161.414L40.2646 125.44L100.065 108.738C102.635 107.921 104.504 105.585 104.504 102.781C104.504 99.9783 102.752 97.5255 100.065 96.8247L40.1478 80.1225Z" fill="#45485C"/>
</svg>
