<svg width="200" height="200" viewBox="0 0 200 200" fill="none" xmlns="http://www.w3.org/2000/svg">
<path fill-rule="evenodd" clip-rule="evenodd" d="M100 10C103.824 10 106.923 13.0996 106.923 16.9231V44.6154C106.923 48.4389 103.824 51.5385 100 51.5385C96.1767 51.5385 93.0771 48.4389 93.0771 44.6154V16.9231C93.0771 13.0996 96.1767 10 100 10Z" fill="#45485C"/>
<path fill-rule="evenodd" clip-rule="evenodd" d="M163.655 36.3461C166.359 39.0497 166.359 43.4332 163.655 46.1368L144.098 65.6945C141.394 68.3981 137.011 68.3981 134.307 65.6945C131.603 62.9909 131.603 58.6074 134.307 55.9038L153.865 36.3461C156.568 33.6425 160.952 33.6425 163.655 36.3461Z" fill="#45485C"/>
<path fill-rule="evenodd" clip-rule="evenodd" d="M148.461 100C148.461 96.1767 151.561 93.0771 155.384 93.0771H183.076C186.9 93.0771 189.999 96.1767 189.999 100C189.999 103.824 186.9 106.923 183.076 106.923H155.384C151.561 106.923 148.461 103.824 148.461 100Z" fill="#45485C"/>
<path fill-rule="evenodd" clip-rule="evenodd" d="M134.307 134.311C137.011 131.607 141.394 131.607 144.098 134.311L163.655 153.869C166.359 156.572 166.359 160.956 163.655 163.659C160.952 166.363 156.568 166.363 153.865 163.659L134.307 144.102C131.603 141.398 131.603 137.015 134.307 134.311Z" fill="#45485C"/>
<path fill-rule="evenodd" clip-rule="evenodd" d="M100 148.462C103.824 148.462 106.923 151.561 106.923 155.385V183.077C106.923 186.901 103.824 190 100 190C96.1767 190 93.0771 186.901 93.0771 183.077V155.385C93.0771 151.561 96.1767 148.462 100 148.462Z" fill="#45485C"/>
<path fill-rule="evenodd" clip-rule="evenodd" d="M65.6945 134.311C68.3981 137.015 68.3981 141.398 65.6945 144.102L46.1368 163.659C43.4332 166.363 39.0497 166.363 36.3461 163.659C33.6425 160.956 33.6425 156.572 36.3461 153.869L55.9038 134.311C58.6074 131.607 62.9909 131.607 65.6945 134.311Z" fill="#45485C"/>
<path fill-rule="evenodd" clip-rule="evenodd" d="M10 100C10 96.1767 13.0996 93.0771 16.9231 93.0771H44.6154C48.4389 93.0771 51.5385 96.1767 51.5385 100C51.5385 103.824 48.4389 106.923 44.6154 106.923H16.9231C13.0996 106.923 10 103.824 10 100Z" fill="#45485C"/>
<path fill-rule="evenodd" clip-rule="evenodd" d="M36.3461 36.3461C39.0497 33.6425 43.4332 33.6425 46.1368 36.3461L65.6945 55.9038C68.3981 58.6074 68.3981 62.9909 65.6945 65.6945C62.9909 68.3981 58.6074 68.3981 55.9038 65.6945L36.3461 46.1368C33.6425 43.4332 33.6425 39.0497 36.3461 36.3461Z" fill="#45485C"/>
</svg>
