<svg width="200" height="200" viewBox="0 0 200 200" fill="none" xmlns="http://www.w3.org/2000/svg">
<path fill-rule="evenodd" clip-rule="evenodd" d="M17 44.6155C17 40.7919 20.0996 37.6924 23.9231 37.6924H176.231C180.054 37.6924 183.154 40.7919 183.154 44.6155C183.154 48.439 180.054 51.5385 176.231 51.5385H23.9231C20.0996 51.5385 17 48.439 17 44.6155Z" fill="#45485C"/>
<path fill-rule="evenodd" clip-rule="evenodd" d="M79.3078 79.2305C83.1314 79.2305 86.2309 82.33 86.2309 86.1535V141.538C86.2309 145.362 83.1314 148.461 79.3078 148.461C75.4843 148.461 72.3848 145.362 72.3848 141.538V86.1535C72.3848 82.33 75.4843 79.2305 79.3078 79.2305Z" fill="#45485C"/>
<path fill-rule="evenodd" clip-rule="evenodd" d="M120.846 79.2305C124.669 79.2305 127.769 82.33 127.769 86.1535V141.538C127.769 145.362 124.669 148.461 120.846 148.461C117.022 148.461 113.923 145.362 113.923 141.538V86.1535C113.923 82.33 117.022 79.2305 120.846 79.2305Z" fill="#45485C"/>
<path fill-rule="evenodd" clip-rule="evenodd" d="M37.7688 37.6924C41.5923 37.6924 44.6919 40.7919 44.6919 44.6155V176.154H155.461V44.6155C155.461 40.7919 158.561 37.6924 162.384 37.6924C166.208 37.6924 169.307 40.7919 169.307 44.6155V176.154C169.307 179.826 167.848 183.348 165.252 185.945C162.655 188.541 159.133 190 155.461 190H44.6919C41.0196 190 37.4978 188.541 34.9011 185.945C32.3045 183.348 30.8457 179.826 30.8457 176.154V44.6155C30.8457 40.7919 33.9453 37.6924 37.7688 37.6924Z" fill="#45485C"/>
<path fill-rule="evenodd" clip-rule="evenodd" d="M64.6213 16.0832C68.5162 12.1882 73.799 10 79.3073 10H120.846C126.354 10 131.637 12.1882 135.532 16.0832C139.427 19.9782 141.615 25.2609 141.615 30.7692V44.6154C141.615 48.4389 138.515 51.5385 134.692 51.5385C130.868 51.5385 127.769 48.4389 127.769 44.6154V30.7692C127.769 28.9331 127.039 27.1722 125.741 25.8739C124.443 24.5755 122.682 23.8462 120.846 23.8462H79.3073C77.4712 23.8462 75.7103 24.5755 74.412 25.8739C73.1136 27.1722 72.3842 28.9331 72.3842 30.7692V44.6154C72.3842 48.4389 69.2847 51.5385 65.4612 51.5385C61.6377 51.5385 58.5381 48.4389 58.5381 44.6154V30.7692C58.5381 25.2609 60.7263 19.9782 64.6213 16.0832Z" fill="#45485C"/>
</svg>
