<svg width="200" height="200" viewBox="0 0 200 200" fill="none" xmlns="http://www.w3.org/2000/svg">
<path fill-rule="evenodd" clip-rule="evenodd" d="M13.5147 46.5147C15.7651 44.2643 18.8173 43 21.9999 43H117.999C125.956 43 133.586 46.1607 139.212 51.7867C144.839 57.4128 147.999 65.0434 147.999 72.9998V144.999C147.999 148.182 146.735 151.234 144.485 153.485C142.234 155.735 139.182 156.999 135.999 156.999H39.9998C32.0434 156.999 24.4128 153.839 18.7867 148.213C13.1607 142.587 10 134.956 10 127V54.9999C10 51.8174 11.2643 48.7651 13.5147 46.5147ZM21.9999 54.9999V127C21.9999 131.773 23.8963 136.352 27.272 139.727C30.6476 143.103 35.226 144.999 39.9998 144.999H135.999V72.9998C135.999 68.226 134.103 63.6476 130.727 60.272C127.352 56.8963 122.773 54.9999 117.999 54.9999L21.9999 54.9999Z" fill="#45485C"/>
<path fill-rule="evenodd" clip-rule="evenodd" d="M187.011 58.8105C188.861 59.8841 190 61.8612 190 64V136C190 138.138 188.861 140.115 187.011 141.189C185.161 142.263 182.88 142.27 181.023 141.209L139.023 117.209C136.146 115.565 135.147 111.9 136.791 109.023C138.435 106.146 142.1 105.146 144.977 106.79L178 125.661V74.339L144.977 93.2093C142.1 94.8533 138.435 93.8537 136.791 90.9766C135.147 88.0996 136.146 84.4344 139.023 82.7904L181.023 58.7905C182.88 57.7294 185.161 57.737 187.011 58.8105Z" fill="#45485C"/>
</svg>
