<svg width="50" height="50" viewBox="0 0 50 50" fill="none" xmlns="http://www.w3.org/2000/svg">
<path d="M45.9629 22.7969L27.2032 4.03516C26.6177 3.45313 25.8256 3.12643 25 3.12643C24.1745 3.12643 23.3824 3.45313 22.7969 4.03516L4.04691 22.7969C3.46488 23.3824 3.13818 24.1744 3.13818 25C3.13818 25.8256 3.46488 26.6176 4.04691 27.2031L22.8067 45.9648C23.3922 46.5469 24.1842 46.8736 25.0098 46.8736C25.8354 46.8736 26.6274 46.5469 27.2129 45.9648L45.9727 27.2031C46.5547 26.6176 46.8814 25.8256 46.8814 25C46.8814 24.1744 46.5547 23.3824 45.9727 22.7969H45.9629ZM23.4375 15.625C23.4375 15.2106 23.6022 14.8132 23.8952 14.5202C24.1882 14.2271 24.5856 14.0625 25 14.0625C25.4144 14.0625 25.8119 14.2271 26.1049 14.5202C26.3979 14.8132 26.5625 15.2106 26.5625 15.625V26.5625C26.5625 26.9769 26.3979 27.3743 26.1049 27.6674C25.8119 27.9604 25.4144 28.125 25 28.125C24.5856 28.125 24.1882 27.9604 23.8952 27.6674C23.6022 27.3743 23.4375 26.9769 23.4375 26.5625V15.625ZM25 35.9375C24.5365 35.9375 24.0833 35.8 23.6979 35.5425C23.3125 35.285 23.0121 34.9189 22.8347 34.4907C22.6573 34.0624 22.6109 33.5912 22.7013 33.1365C22.7918 32.6819 23.015 32.2643 23.3428 31.9365C23.6705 31.6087 24.0882 31.3855 24.5428 31.295C24.9974 31.2046 25.4687 31.251 25.897 31.4284C26.3252 31.6058 26.6913 31.9062 26.9488 32.2916C27.2063 32.6771 27.3438 33.1302 27.3438 33.5938C27.3438 34.2154 27.0969 34.8115 26.6573 35.251C26.2178 35.6906 25.6216 35.9375 25 35.9375Z" fill="#45485C"/>
</svg>
