<svg width="50" height="50" viewBox="0 0 50 50" fill="none" xmlns="http://www.w3.org/2000/svg">
<path fill-rule="evenodd" clip-rule="evenodd" d="M25 5.96154C14.4853 5.96154 5.96154 14.4853 5.96154 25C5.96154 35.5147 14.4853 44.0385 25 44.0385C35.5147 44.0385 44.0385 35.5147 44.0385 25C44.0385 14.4853 35.5147 5.96154 25 5.96154ZM2.5 25C2.5 12.5736 12.5736 2.5 25 2.5C37.4264 2.5 47.5 12.5736 47.5 25C47.5 37.4264 37.4264 47.5 25 47.5C12.5736 47.5 2.5 37.4264 2.5 25Z" fill="#45485C"/>
<path fill-rule="evenodd" clip-rule="evenodd" d="M25 12.8846C25.9559 12.8846 26.7308 13.6595 26.7308 14.6154V26.7308C26.7308 27.6866 25.9559 28.4615 25 28.4615C24.0441 28.4615 23.2692 27.6866 23.2692 26.7308V14.6154C23.2692 13.6595 24.0441 12.8846 25 12.8846Z" fill="#45485C"/>
<path d="M25 37.1154C26.4338 37.1154 27.5962 35.953 27.5962 34.5192C27.5962 33.0854 26.4338 31.9231 25 31.9231C23.5662 31.9231 22.4038 33.0854 22.4038 34.5192C22.4038 35.953 23.5662 37.1154 25 37.1154Z" fill="#45485C"/>
</svg>
