<svg width="50" height="50" viewBox="0 0 50 50" fill="none" xmlns="http://www.w3.org/2000/svg">
<path d="M25 14.0625C25.4144 14.0625 25.8119 14.2271 26.1049 14.5202C26.3979 14.8132 26.5625 15.2106 26.5625 15.625V26.5625C26.5625 26.9769 26.3979 27.3743 26.1049 27.6674C25.8119 27.9604 25.4144 28.125 25 28.125C24.5856 28.125 24.1882 27.9604 23.8952 27.6674C23.6022 27.3743 23.4375 26.9769 23.4375 26.5625V15.625C23.4375 15.2106 23.6022 14.8132 23.8952 14.5202C24.1882 14.2271 24.5856 14.0625 25 14.0625ZM22.6563 33.5938C22.6563 34.0573 22.7937 34.5104 23.0513 34.8959C23.3088 35.2813 23.6749 35.5817 24.1031 35.7591C24.5314 35.9365 25.0026 35.9829 25.4573 35.8925C25.9119 35.802 26.3295 35.5788 26.6573 35.251C26.9851 34.9233 27.2083 34.5056 27.2988 34.051C27.3892 33.5964 27.3428 33.1251 27.1654 32.6968C26.988 32.2686 26.6876 31.9025 26.3022 31.645C25.9167 31.3875 25.4636 31.25 25 31.25C24.3784 31.25 23.7823 31.4969 23.3428 31.9365C22.9032 32.376 22.6563 32.9722 22.6563 33.5938ZM46.875 25C46.8762 25.4093 46.7962 25.8147 46.6396 26.1929C46.483 26.5711 46.2531 26.9144 45.9629 27.2031L27.2032 45.9648C26.6177 46.5469 25.8256 46.8736 25 46.8736C24.1745 46.8736 23.3824 46.5469 22.7969 45.9648L4.04691 27.2031C3.46488 26.6176 3.13818 25.8256 3.13818 25C3.13818 24.1744 3.46488 23.3824 4.04691 22.7969L22.8067 4.03516C23.3922 3.45313 24.1842 3.12643 25.0098 3.12643C25.8354 3.12643 26.6274 3.45313 27.2129 4.03516L45.9727 22.7969C46.2611 23.0864 46.4893 23.4301 46.6441 23.8082C46.799 24.1864 46.8775 24.5914 46.875 25ZM43.75 25L25 6.25001L6.25004 25L25 43.75L43.75 25Z" fill="#45485C"/>
</svg>
