<svg width="200" height="200" viewBox="0 0 200 200" fill="none" xmlns="http://www.w3.org/2000/svg">
<path fill-rule="evenodd" clip-rule="evenodd" d="M100 23.8462C57.9414 23.8462 23.8462 57.9414 23.8462 100C23.8462 142.059 57.9414 176.154 100 176.154C142.059 176.154 176.154 142.059 176.154 100C176.154 57.9414 142.059 23.8462 100 23.8462ZM10 100C10 50.2944 50.2944 10 100 10C149.706 10 190 50.2944 190 100C190 149.706 149.706 190 100 190C50.2944 190 10 149.706 10 100Z" fill="#45485C"/>
<path fill-rule="evenodd" clip-rule="evenodd" d="M100 51.5381C103.824 51.5381 106.923 54.6377 106.923 58.4612V106.923C106.923 110.746 103.824 113.846 100 113.846C96.1767 113.846 93.0771 110.746 93.0771 106.923V58.4612C93.0771 54.6377 96.1767 51.5381 100 51.5381Z" fill="#45485C"/>
<path d="M99.9998 148.462C105.735 148.462 110.384 143.812 110.384 138.077C110.384 132.342 105.735 127.692 99.9998 127.692C94.2646 127.692 89.6152 132.342 89.6152 138.077C89.6152 143.812 94.2646 148.462 99.9998 148.462Z" fill="#45485C"/>
</svg>
