<svg width="50" height="50" viewBox="0 0 50 50" fill="none" xmlns="http://www.w3.org/2000/svg">
<path d="M36.6368 28.2891L30.3868 25.1641C30.1407 25.0415 29.8667 24.9859 29.5924 25.0031C29.3181 25.0202 29.0531 25.1094 28.8243 25.2617L25.9551 27.1758C24.638 26.4517 23.5542 25.3679 22.8301 24.0508L24.7442 21.1816C24.8965 20.9528 24.9857 20.6878 25.0028 20.4135C25.02 20.1392 24.9644 19.8652 24.8418 19.6191L21.7168 13.3691C21.5873 13.1076 21.3871 12.8875 21.1389 12.7339C20.8907 12.5803 20.6044 12.4992 20.3125 12.5C18.2405 12.5 16.2534 13.3231 14.7883 14.7882C13.3231 16.2534 12.5 18.2405 12.5 20.3125C12.5052 24.8693 14.3177 29.238 17.5398 32.4602C20.762 35.6824 25.1307 37.4948 29.6875 37.5C30.7135 37.5 31.7294 37.2979 32.6773 36.9053C33.6251 36.5127 34.4864 35.9372 35.2118 35.2118C35.9373 34.4863 36.5127 33.6251 36.9053 32.6772C37.298 31.7294 37.5 30.7135 37.5 29.6875C37.5002 29.3972 37.4196 29.1126 37.2671 28.8656C37.1146 28.6186 36.8964 28.419 36.6368 28.2891ZM29.6875 34.375C25.9592 34.3709 22.3848 32.888 19.7484 30.2516C17.1121 27.6153 15.6292 24.0408 15.625 20.3125C15.6247 19.2287 16 18.1784 16.6869 17.3401C17.3738 16.5019 18.3299 15.9275 19.3926 15.7148L21.6348 20.207L19.7266 23.0469C19.584 23.2608 19.4964 23.5065 19.4715 23.7624C19.4467 24.0183 19.4853 24.2763 19.584 24.5137C20.702 27.1707 22.8157 29.2844 25.4727 30.4023C25.7108 30.5055 25.9708 30.5477 26.2292 30.5252C26.4877 30.5027 26.7365 30.4161 26.9532 30.2734L29.8067 28.3711L34.2989 30.6133C34.0845 31.6772 33.5077 32.6338 32.6667 33.3198C31.8258 34.0058 30.7728 34.3787 29.6875 34.375ZM25 4.6875C21.4931 4.68674 18.0458 5.59392 14.9935 7.32076C11.9412 9.0476 9.38802 11.5353 7.58241 14.5416C5.77679 17.5479 4.78028 20.9706 4.68986 24.4763C4.59944 27.982 5.4182 31.4515 7.06645 34.5469L4.84965 41.1973C4.66602 41.7479 4.63938 42.3388 4.77269 42.9037C4.90601 43.4686 5.19401 43.9852 5.60444 44.3956C6.01486 44.806 6.53147 45.094 7.09638 45.2273C7.66129 45.3607 8.25216 45.334 8.80277 45.1504L15.4532 42.9336C18.1773 44.3825 21.1958 45.1918 24.2794 45.3C27.363 45.4082 30.4308 44.8125 33.2498 43.5581C36.0688 42.3036 38.565 40.4235 40.5489 38.0603C42.5328 35.6971 43.9522 32.9131 44.6995 29.9194C45.4468 26.9257 45.5022 23.8012 44.8616 20.7829C44.221 17.7646 42.9012 14.9319 41.0024 12.4998C39.1036 10.0678 36.6757 8.10023 33.903 6.74659C31.1302 5.39295 28.0856 4.68877 25 4.6875ZM25 42.1875C21.9785 42.1896 19.01 41.3939 16.3946 39.8809C16.2031 39.7698 15.9902 39.7007 15.77 39.6782C15.5498 39.6556 15.3273 39.6801 15.1172 39.75L7.81254 42.1875L10.2481 34.8828C10.3183 34.6729 10.3431 34.4505 10.3209 34.2303C10.2987 34.0101 10.2299 33.7971 10.1192 33.6055C8.22459 30.3299 7.46392 26.5207 7.95517 22.7687C8.44643 19.0167 10.1621 15.5317 12.8361 12.8543C15.5102 10.1769 18.993 8.45678 22.7444 7.96079C26.4957 7.4648 30.3059 8.22065 33.5839 10.1111C36.8618 12.0016 39.4243 14.9209 40.8738 18.4163C42.3233 21.9117 42.5787 25.7878 41.6005 29.4431C40.6223 33.0985 38.4651 36.3289 35.4636 38.6332C32.4621 40.9375 28.7841 42.1869 25 42.1875Z" fill="#45485C"/>
</svg>
