<svg width="50" height="50" viewBox="0 0 50 50" fill="none" xmlns="http://www.w3.org/2000/svg">
<path fill-rule="evenodd" clip-rule="evenodd" d="M6.64568 18.8756C5.87994 20.9386 5.46154 23.1704 5.46154 25.5C5.46154 35.357 12.9524 43.4644 22.552 44.44L23.3296 41.848L18.3549 35.9689C17.9964 35.5452 17.9012 34.9582 18.1073 34.4429L20.2845 29H19.5C18.9319 29 18.4125 28.679 18.1584 28.1708L16.9743 25.8027L11.1627 24.4616C10.8105 24.3803 10.4995 24.1746 10.2869 23.8822L6.64568 18.8756ZM11.311 11.77L9.19279 17.2773L12.3834 21.6644L13.4613 21.9132L14.419 17.6754C14.5896 16.9206 15.3064 16.4194 16.0739 16.5183L20.736 17.1193L22.9148 16.2212L28.3874 9.01687L26.3968 6.55484C25.7729 6.49313 25.1401 6.46154 24.5 6.46154C19.3803 6.46154 14.7325 8.4824 11.311 11.77ZM16.3845 22.5877L18.3373 23.0384C18.7733 23.139 19.1416 23.429 19.3417 23.8292L20.4271 26H21.4845L22.1073 24.4429C22.3536 23.827 22.9752 23.4461 23.6358 23.5061L29.1358 24.0061C29.3894 24.0292 29.6329 24.1164 29.8435 24.2596L42.1572 32.6329C43.048 30.43 43.5385 28.0223 43.5385 25.5C43.5385 17.3215 38.3815 10.3474 31.1419 7.65219L31.4595 8.0449C31.8935 8.58176 31.9051 9.34557 31.4875 9.89534L25.0574 18.3602C24.8961 18.5726 24.6811 18.7381 24.4346 18.8397L21.5109 20.0447C21.2695 20.1442 21.0064 20.179 20.7475 20.1456L17.0443 19.6683L16.3845 22.5877ZM40.8074 35.3306C40.756 35.3038 40.7056 35.2737 40.6565 35.2404L28.4776 26.9587L24.4775 26.595L21.2277 34.7196L26.1451 40.5311C26.4728 40.9184 26.5825 41.4451 26.4368 41.931L25.665 44.5034C32.0939 44.1153 37.662 40.537 40.8074 35.3306ZM2 25.5C2 13.0736 12.0736 3 24.5 3C36.9264 3 47 13.0736 47 25.5C47 37.9264 36.9264 48 24.5 48C12.0736 48 2 37.9264 2 25.5Z" fill="#45485C"/>
</svg>
