<svg width="200" height="200" viewBox="0 0 200 200" fill="none" xmlns="http://www.w3.org/2000/svg">
<path fill-rule="evenodd" clip-rule="evenodd" d="M100 23.8462C57.9414 23.8462 23.8462 57.9414 23.8462 100C23.8462 142.059 57.9414 176.154 100 176.154C142.059 176.154 176.154 142.059 176.154 100C176.154 57.9414 142.059 23.8462 100 23.8462ZM10 100C10 50.2944 50.2944 10 100 10C149.706 10 190 50.2944 190 100C190 149.706 149.706 190 100 190C50.2944 190 10 149.706 10 100Z" fill="#45485C"/>
<path fill-rule="evenodd" clip-rule="evenodd" d="M106.057 97.2944L125.784 99.9649C127.739 100.197 129.617 100.865 131.28 101.919L178.223 130.793C181.479 132.797 182.495 137.061 180.492 140.317C178.489 143.574 174.225 144.59 170.968 142.587L123.998 113.695L104.252 111.023L104.244 111.04L92.3887 137.608L92.3774 137.633L108.668 155.223C110.121 156.82 111.185 158.731 111.778 160.807C112.372 162.883 112.477 165.068 112.087 167.191L112.071 167.278L108.696 184.413C107.957 188.164 104.317 190.606 100.565 189.867C96.8137 189.129 94.3716 185.488 95.1105 181.737L98.4707 164.678C98.4732 164.655 98.4713 164.633 98.4651 164.611C98.4585 164.588 98.4473 164.566 98.4321 164.548L82.1787 146.998C80.3449 145.001 79.1379 142.509 78.7071 139.833C78.2772 137.161 78.6395 134.422 79.7491 131.954L91.5745 105.455C92.7521 102.703 94.8013 100.411 97.4082 98.9353C100.032 97.4498 103.072 96.8731 106.057 97.2944Z" fill="#45485C"/>
<path fill-rule="evenodd" clip-rule="evenodd" d="M48.1874 30.9771C51.7069 32.4712 53.3488 36.5355 51.8546 40.055L44.0845 58.358L44.0876 58.3661L54.0395 84.8469L54.0718 84.9357L72.5182 88.9008C74.5823 89.326 76.5203 90.2226 78.1809 91.5209C79.8489 92.8249 81.1911 94.4985 82.102 96.4095C82.105 96.4159 82.1081 96.4223 82.1111 96.4286L85.3333 103.127C85.347 103.148 85.3653 103.166 85.3868 103.18C85.4098 103.194 85.4358 103.203 85.4626 103.205H97.059C100.882 103.205 103.982 106.305 103.982 110.129C103.982 113.952 100.882 117.052 97.059 117.052H85.3763L85.2765 117.051C82.7179 117.014 80.2183 116.278 78.0484 114.921C75.8785 113.565 74.1212 111.641 72.9669 109.357L72.9067 109.235L69.6403 102.445L51.1314 98.466C51.1301 98.4658 51.1288 98.4655 51.1274 98.4652C48.8256 97.9726 46.6887 96.8977 44.9209 95.3433C43.1732 93.8065 41.8441 91.8518 41.0576 89.6624L31.1296 63.2454C31.129 63.2438 31.1284 63.2421 31.1278 63.2405C29.8841 59.9402 29.9466 56.2897 31.3027 53.0339L31.3208 52.9904L31.321 52.9905L39.1094 34.6443C40.6036 31.1248 44.6679 29.4829 48.1874 30.9771Z" fill="#45485C"/>
<path fill-rule="evenodd" clip-rule="evenodd" d="M117.848 13.552C121.193 11.7002 125.406 12.9108 127.258 16.256L135.332 30.8407C136.809 33.5575 137.34 36.6885 136.841 39.7403C136.343 42.7922 134.844 45.5916 132.579 47.6976L132.505 47.7655L109.284 68.742C108.484 69.4928 107.594 70.1406 106.633 70.6703C106.63 70.6715 106.628 70.6726 106.626 70.6738L95.9929 76.5523L95.8881 76.6091C93.9295 77.6483 91.757 78.22 89.5406 78.2795C89.4787 78.2812 89.4168 78.282 89.3549 78.282H70.8672C70.8516 78.2827 70.8365 78.2877 70.8235 78.2963C70.8108 78.3046 70.8007 78.3161 70.7939 78.3296L63.629 95.3354C62.1445 98.8589 58.0846 100.512 54.5611 99.0273C51.0375 97.5428 49.3846 93.4829 50.8691 89.9594L58.0717 72.8643C59.1429 70.3731 60.918 68.2488 63.179 66.7516C65.44 65.2545 68.0888 64.4497 70.8005 64.4359L70.8356 64.4358L89.2078 64.4358C89.2662 64.4299 89.3231 64.4141 89.3762 64.3891L99.8716 58.5868C99.8959 58.5642 99.9203 58.5419 99.9448 58.5197L123.157 37.5514C123.167 37.5395 123.174 37.5249 123.176 37.5093C123.179 37.4921 123.176 37.4744 123.169 37.4587L115.144 22.9619C113.292 19.6167 114.503 15.4038 117.848 13.552Z" fill="#45485C"/>
</svg>
