<svg width="45" height="45" viewBox="0 0 45 45" fill="none" xmlns="http://www.w3.org/2000/svg">
<path d="M32.3438 15.7447V14.7656C32.3438 10.357 25.6939 7.03125 16.875 7.03125C8.05606 7.03125 1.40625 10.357 1.40625 14.7656V21.7969C1.40625 25.4689 6.02051 28.3869 12.6562 29.2605V30.2344C12.6562 34.643 19.3061 37.9688 28.125 37.9688C36.9439 37.9688 43.5938 34.643 43.5938 30.2344V23.2031C43.5938 19.5645 39.1254 16.643 32.3438 15.7447ZM40.7812 23.2031C40.7812 25.527 35.3689 28.125 28.125 28.125C27.4693 28.125 26.8189 28.1021 26.1773 28.06C29.9689 26.6783 32.3438 24.4336 32.3438 21.7969V18.5871C37.5943 19.3693 40.7812 21.4928 40.7812 23.2031ZM12.6562 26.4111V22.2293C14.0551 22.4116 15.4643 22.502 16.875 22.5C18.2857 22.502 19.6949 22.4116 21.0938 22.2293V26.4111C19.697 26.6175 18.2869 26.7203 16.875 26.7188C15.4631 26.7203 14.053 26.6175 12.6562 26.4111ZM29.5312 19.3236V21.7969C29.5312 23.2717 27.3498 24.8555 23.9062 25.817V21.709C26.1756 21.1588 28.0969 20.3396 29.5312 19.3236ZM16.875 9.84375C24.1189 9.84375 29.5312 12.4418 29.5312 14.7656C29.5312 17.0895 24.1189 19.6875 16.875 19.6875C9.63105 19.6875 4.21875 17.0895 4.21875 14.7656C4.21875 12.4418 9.63105 9.84375 16.875 9.84375ZM4.21875 21.7969V19.3236C5.65312 20.3396 7.57441 21.1588 9.84375 21.709V25.817C6.4002 24.8555 4.21875 23.2717 4.21875 21.7969ZM15.4688 30.2344V29.5014C15.9311 29.5189 16.3986 29.5312 16.875 29.5312C17.557 29.5312 18.2232 29.5084 18.8771 29.4697C19.6036 29.7298 20.3435 29.9504 21.0938 30.1307V34.2545C17.6502 33.293 15.4688 31.7092 15.4688 30.2344ZM23.9062 34.8486V30.6562C25.3046 30.8442 26.714 30.9382 28.125 30.9375C29.5357 30.9395 30.9449 30.8491 32.3438 30.6668V34.8486C29.5462 35.2588 26.7038 35.2588 23.9062 34.8486ZM35.1562 34.2545V30.1465C37.4256 29.5963 39.3469 28.7771 40.7812 27.7611V30.2344C40.7812 31.7092 38.5998 33.293 35.1562 34.2545Z" fill="#6EB8FF"/>
</svg>
