<svg width="45" height="45" viewBox="0 0 45 45" fill="none" xmlns="http://www.w3.org/2000/svg">
<path d="M4.21875 18.2814H8.4375V29.5314H5.625C5.25204 29.5314 4.89435 29.6795 4.63063 29.9432C4.36691 30.207 4.21875 30.5646 4.21875 30.9376C4.21875 31.3106 4.36691 31.6682 4.63063 31.932C4.89435 32.1957 5.25204 32.3439 5.625 32.3439H39.375C39.748 32.3439 40.1056 32.1957 40.3694 31.932C40.6331 31.6682 40.7812 31.3106 40.7812 30.9376C40.7812 30.5646 40.6331 30.207 40.3694 29.9432C40.1056 29.6795 39.748 29.5314 39.375 29.5314H36.5625V18.2814H40.7812C41.0872 18.281 41.3847 18.181 41.6287 17.9963C41.8726 17.8116 42.0497 17.5523 42.133 17.2579C42.2163 16.9635 42.2013 16.65 42.0902 16.3648C41.9792 16.0797 41.7782 15.8386 41.5178 15.678L23.2365 4.42803C23.015 4.29183 22.76 4.21973 22.5 4.21973C22.24 4.21973 21.985 4.29183 21.7635 4.42803L3.48223 15.678C3.22177 15.8386 3.02078 16.0797 2.90976 16.3648C2.79874 16.65 2.78374 16.9635 2.86703 17.2579C2.95033 17.5523 3.12737 17.8116 3.37131 17.9963C3.61525 18.181 3.91278 18.281 4.21875 18.2814ZM11.25 18.2814H16.875V29.5314H11.25V18.2814ZM25.3125 18.2814V29.5314H19.6875V18.2814H25.3125ZM33.75 29.5314H28.125V18.2814H33.75V29.5314ZM22.5 7.27569L35.8137 15.4689H9.18633L22.5 7.27569ZM43.5938 36.5626C43.5938 36.9356 43.4456 37.2932 43.1819 37.557C42.9181 37.8207 42.5605 37.9689 42.1875 37.9689H2.8125C2.43954 37.9689 2.08185 37.8207 1.81813 37.557C1.55441 37.2932 1.40625 36.9356 1.40625 36.5626C1.40625 36.1896 1.55441 35.832 1.81813 35.5682C2.08185 35.3045 2.43954 35.1564 2.8125 35.1564H42.1875C42.5605 35.1564 42.9181 35.3045 43.1819 35.5682C43.4456 35.832 43.5938 36.1896 43.5938 36.5626Z" fill="#6EB8FF"/>
</svg>
