<svg width="55" height="64" viewBox="0 0 55 64" fill="none" xmlns="http://www.w3.org/2000/svg">
<g clip-path="url(#clip0_27_179)">
<path d="M32.9063 60.2105C44.897 55.2438 50.5911 41.497 45.6244 29.5063C40.6577 17.5155 26.9109 11.8215 14.9202 16.7882C2.92941 21.7549 -2.76469 35.5017 2.20204 47.4924C7.16877 59.4832 20.9155 65.1773 32.9063 60.2105Z" fill="#E9EAEB"/>
<path d="M32.11 18C32.92 19.31 33.42 20.87 33.42 22.47V33" stroke="#2A5082" stroke-width="2" stroke-miterlimit="10"/>
<path d="M19.41 10C19.41 5.03 23.44 1 28.41 1C33.38 1 37.41 5.03 37.41 10C37.41 14.97 33.38 19 28.41 19C23.44 19 19.41 14.97 19.41 10Z" fill="#A3D4FF" stroke="#2A5082" stroke-width="2" stroke-miterlimit="10"/>
<path d="M44.41 39L39.41 35H36.41L33.41 33H31.41L29.41 32L26.41 34H24.41L21.41 35L20.41 39V44H44.41V39Z" fill="#E9EAEB" stroke="#2A5082" stroke-width="2" stroke-miterlimit="10"/>
<path d="M45.41 38L39.22 41.9701C38.8 40.8201 37.71 40 36.41 40H30.41C29.03 40 26.94 38 25.29 38H19.41C16.99 38 14.63 39.87 13.41 41C11.53 42.88 7.95003 46.56 7.41003 47C10.4 49.59 16.04 55.18 17.41 56.39C19.27 54.53 20 53 21.53 53H36.41C37.8 52.22 46.41 45 46.41 45C46.41 45 52.25 38.71 53.41 36C52.68 35.02 48.16 33.56 45.41 38Z" fill="white"/>
<path d="M26.41 46H36.41C38.07 46 39.41 44.66 39.41 43C39.41 41.34 38.07 40 36.41 40H30.41C29.03 40 26.94 38 25.29 38H19.41C16.99 38 14.63 39.87 13.41 41C11.53 42.88 7.95003 46.56 7.41003 47C10.4 49.59 16.04 55.18 17.41 56.39C19.27 54.53 20 53 21.53 53H36.41C37.8 52.22 46.41 45 46.41 45C46.41 45 52.25 38.71 53.41 36C52.68 35.02 48.16 33.56 45.41 38L39.16 42" stroke="#2A5082" stroke-width="2" stroke-miterlimit="10"/>
<path d="M7.41252 41.9959L1.40918 47.9993L15.4099 62L21.4132 55.9966L7.41252 41.9959Z" fill="#E9EAEB" stroke="#2A5082" stroke-width="2" stroke-miterlimit="10"/>
<path d="M6.41003 47L8.41003 49" stroke="#2A5082" stroke-width="2" stroke-miterlimit="10"/>
<path d="M42.41 27H37.41C37.41 23.13 40.54 20 44.41 20H49.41C49.41 23.87 46.28 27 42.41 27Z" fill="#A3D4FF" stroke="#2A5082" stroke-width="2" stroke-miterlimit="10"/>
<path d="M27.41 28H30.41C30.41 25.24 28.17 23 25.41 23H22.41C22.41 25.76 24.65 28 27.41 28Z" fill="white" stroke="#2A5082" stroke-width="2" stroke-miterlimit="10"/>
<path d="M25.41 13H29.41C29.96 13 30.41 12.55 30.41 12V11C30.41 10.45 29.96 10 29.41 10H27.41C26.86 10 26.41 9.55 26.41 9V8C26.41 7.45 26.86 7 27.41 7H31.41" stroke="#2A5082" stroke-width="2" stroke-miterlimit="10"/>
<path d="M28.41 7V4" stroke="#2A5082" stroke-width="2" stroke-miterlimit="10"/>
<path d="M28.41 13V16" stroke="#2A5082" stroke-width="2" stroke-miterlimit="10"/>
</g>
<defs>
<clipPath id="clip0_27_179">
<rect width="54.56" height="63.41" fill="white"/>
</clipPath>
</defs>
</svg>
